<?xml version="1.0" encoding="utf-8"?>
<!-- Generator: Adobe Illustrator 23.0.3, SVG Export Plug-In . SVG Version: 6.00 Build 0)  -->
<svg version="1.1" id="Calque_1" xmlns="http://www.w3.org/2000/svg" xmlns:xlink="http://www.w3.org/1999/xlink" x="0px" y="0px"
	 viewBox="0 0 600 300" style="enable-background:new 0 0 600 300;" xml:space="preserve">
<style type="text/css">
	.st0{fill:url(#SVGID_1_);}
	.st1{fill:#FAB95B;}
	.st2{fill:#FBEED7;}
	.st3{fill:#9BDDA9;}
	.st4{fill:#FFBDFA;}
	.st5{opacity:0.9;fill:#FFFFFF;enable-background:new    ;}
	.st6{fill:#1A3263;}
	.st7{opacity:0.9;}
	.st8{fill:#FFFFFF;}
</style>
<g>
	<g id="Calque_1-2">
		
			<linearGradient id="SVGID_1_" gradientUnits="userSpaceOnUse" x1="342.3842" y1="68.6502" x2="249.5333" y2="229.4716" gradientTransform="matrix(1 0 0 -1 0 302)">
			<stop  offset="0" style="stop-color:#E24040"/>
			<stop  offset="1" style="stop-color:#FF9494"/>
		</linearGradient>
		<path class="st0" d="M296,60.1c-51.3,0-92.8,41.6-92.8,92.8s41.6,92.8,92.8,92.8s92.8-41.6,92.8-92.8S347.2,60.1,296,60.1z
			 M295.4,178c-14.2,0-25.8-11.6-25.8-25.8s11.6-25.8,25.8-25.8s25.8,11.6,25.8,25.8C321.2,166.4,309.7,178,295.4,178L295.4,178z"/>
		<path class="st1" d="M296,245.8c51.3,0,92.8-41.6,92.8-92.8c0-8.4-1.1-16.8-3.4-24.9c0.5,10.2-1.9,17.9-4.9,24.1
			c-3.1,6.4-5.5,6.2-5.5,17.9c0,11.7-4,22.3-8.6,28.9c-4.6,6.6-10.1,6-17,15S330,234,320.1,235.3s-16.1-1.1-23.2-2.4
			c-7.1-1.3-8.2,2.9-16.3,3.3s-14.5,4.7-14.5,4.7C275.8,244.1,285.8,245.8,296,245.8z"/>
		<path class="st2" d="M257.7,134.2L257.7,134.2c1,1,1,2.6,0,3.6l-4.5,4.5c-1,1-2.6,1-3.6,0l0,0c-1-1-1-2.6,0-3.6l4.5-4.5
			C255.1,133.2,256.7,133.2,257.7,134.2z"/>
		<path class="st2" d="M363,153.8L363,153.8c-0.2,1.4-1.5,2.4-2.9,2.2l-6.3-0.9c-1.4-0.2-2.4-1.5-2.2-2.9l0,0
			c0.2-1.4,1.5-2.4,2.9-2.2l6.3,0.9C362.2,151.2,363.1,152.4,363,153.8z"/>
		<path class="st2" d="M358.9,120.7L358.9,120.7c1.4-0.1,2.6,0.9,2.8,2.3l0.6,6.4c0.1,1.4-0.9,2.6-2.3,2.8l0,0
			c-1.4,0.1-2.6-0.9-2.8-2.3l-0.6-6.4C356.5,122,357.5,120.8,358.9,120.7z"/>
		<path class="st2" d="M218.8,179.2L218.8,179.2c0.4-1.3,1.8-2.1,3.1-1.7l6.1,1.8c1.3,0.4,2.1,1.8,1.7,3.1l0,0
			c-0.4,1.3-1.8,2.1-3.1,1.7l-6.1-1.8C219.2,182,218.4,180.6,218.8,179.2z"/>
		<path class="st3" d="M276.1,209.1L276.1,209.1c-0.1-1.4,0.9-2.6,2.3-2.8l6.4-0.6c1.4-0.1,2.6,0.9,2.8,2.3l0,0
			c0.1,1.4-0.9,2.6-2.3,2.8l-6.4,0.6C277.5,211.6,276.3,210.5,276.1,209.1z"/>
		<path class="st3" d="M226.2,116.5L226.2,116.5c1.4,0.2,2.4,1.5,2.2,2.9l-0.9,6.3c-0.2,1.4-1.5,2.4-2.9,2.2l0,0
			c-1.4-0.2-2.4-1.5-2.2-2.9l0.9-6.3C223.5,117.3,224.8,116.3,226.2,116.5z"/>
		<path class="st3" d="M263.5,89.7L263.5,89.7c1-1,2.6-1,3.6,0l4.5,4.5c1,1,1,2.6,0,3.6l0,0c-1,1-2.6,1-3.6,0l-4.5-4.5
			C262.5,92.3,262.5,90.7,263.5,89.7z"/>
		<path class="st4" d="M304.2,99.6L304.2,99.6c1.3,0.5,2,2,1.5,3.3l-2.3,6c-0.5,1.3-2,2-3.3,1.5l0,0c-1.3-0.5-2-2-1.5-3.3l2.3-6
			C301.4,99.8,302.8,99.1,304.2,99.6z"/>
		<path class="st4" d="M321.3,203.9L321.3,203.9c0.9,1.1,0.7,2.7-0.4,3.6l-5,4c-1.1,0.9-2.7,0.7-3.6-0.4l0,0
			c-0.9-1.1-0.7-2.7,0.4-3.6l5-4C318.9,202.6,320.5,202.8,321.3,203.9z"/>
		<path class="st4" d="M257.9,184.6L257.9,184.6c-0.9,1-2.5,1.1-3.6,0.2l-4.8-4.2c-1-0.9-1.1-2.5-0.2-3.6l0,0c0.9-1,2.5-1.1,3.6-0.2
			l4.8,4.2C258.7,182,258.8,183.6,257.9,184.6z"/>
		<path class="st5" d="M296,60.1c-51.3,0-92.8,41.6-92.8,92.8c0,22.1,7.9,43.5,22.3,60.3c0,0-10-17.2-12.7-30.7
			c-2.6-13.4-4.6-20.5-3.1-30.4c1.5-9.9,6.6-10.8,9-20.1c2.4-9.3,2.9-16.1,6.6-22.7s10.4-4.4,16.5-12.1s9.5-15.7,16.5-18.1
			c7.1-2.4,15.4-0.7,26-3.1c10.6-2.4,11.7-6.6,20.9-7.3c9.3-0.7,26.4-4.5,58.4,20.7C346.2,70.7,321.7,60.1,296,60.1z"/>
		<path class="st6" d="M386.6,152.9c0,50-40.5,90.6-90.6,90.7c-8.4,0-16.8-1.2-24.9-3.5c-17.7-5-33.5-15.5-45.2-29.7
			c-11.8-14.3-18.8-31.9-20.3-50.4c-1.4-18.9,3-38,12.9-54.2c9.5-15.6,23.5-28,40.2-35.6c17.2-7.8,37-10,55.5-6.2
			C356.4,72.7,386.7,109.9,386.6,152.9c0,2.8,4.4,2.8,4.4,0c0-19.7-6.1-39.1-17.6-55.1c-11.2-15.7-26.9-27.6-45-34.2
			c-18.6-6.8-39.4-7.5-58.5-2.1c-50.5,14.4-79.8,67-65.4,117.5c2.3,8.2,5.7,16,10.1,23.2c9.9,16.2,24.7,29.4,42,37.3
			c18.3,8.2,38.7,10.5,58.3,6.6c18.8-3.8,36.3-13.5,49.5-27.4c13.4-14,22.4-32,25.3-51.1c0.7-4.8,1.1-9.7,1.1-14.6
			C391,150.1,386.6,150.1,386.6,152.9z"/>
		<g class="st7">
			<path class="st8" d="M322.1,146l-1.4,0.8c3,13.9-5.9,27.7-19.9,30.6c-1.8,0.4-3.6,0.6-5.4,0.6c-6.9,0-13.5-2.8-18.3-7.7l0,0
				l-1.5,0.8c0,0,3.3,11.5,12.1,12.6c8.8,1.1,23.2,1.8,30.2-4.4s9-13,8.6-19.4C326.1,153.5,322.1,146,322.1,146z"/>
		</g>
		<path class="st6" d="M319,152.2c-0.1,9.7-6.2,18.8-15.4,22.1c-9.4,3.4-20,0.6-26.5-7.1c-6.3-7.6-7-18.7-2-27.1
			c5.1-8.4,15.1-12.9,24.8-11c9.7,2,17.2,9.7,18.8,19.5C318.9,149.7,319,150.9,319,152.2c0,2.8,4.4,2.8,4.4,0
			c-0.1-11.8-7.4-22.2-18.5-26.3c-10.9-4-23.7-0.5-31.1,8.4c-7.4,9.1-8.6,22.1-2.5,32.3c6.1,10.1,18,15.3,29.6,13.1
			c11.2-2.2,20.3-11.6,22.1-22.9c0.2-1.5,0.4-3,0.4-4.5C323.4,149.3,319,149.3,319,152.2z"/>
	</g>
</g>
<g>
	<path class="st6" d="M188.8,183.2v26.4h-17.9v29.8H140v-29.8H65.7v-14.8l75.2-127.4h30v115.7H188.8z M140,116.1h-0.4L104,183.2h36
		V116.1z"/>
</g>
<g>
	<path class="st6" d="M518.8,183.2v26.4h-17.9v29.8H470v-29.8h-74.3v-14.8l75.2-127.4h30v115.7H518.8z M470,116.1h-0.4L434,183.2h36
		V116.1z"/>
</g>
</svg>
