<svg xmlns="http://www.w3.org/2000/svg" xmlns:xlink="http://www.w3.org/1999/xlink" viewBox="0 0 1237.01 1236.99"><defs><style>.cls-1{fill:url(#Dégradé_sans_nom_14);}.cls-2{fill:#fab95b;}.cls-3{fill:#fbeed7;}.cls-4{fill:#9bdda9;}.cls-5{fill:#ffbdfa;}.cls-6,.cls-9{fill:#fff;}.cls-6,.cls-8{opacity:0.9;}.cls-7{fill:#1a3263;}</style><linearGradient id="Dégradé_sans_nom_14" x1="917.81" y1="1136.91" x2="319.21" y2="100.1" gradientUnits="userSpaceOnUse"><stop offset="0" stop-color="#e24040"/><stop offset="1" stop-color="#ff9494"/></linearGradient></defs><title>Fichier 6</title><g id="Calque_2" data-name="Calque 2"><g id="Calque_1-2" data-name="Calque 1"><path class="cls-1" d="M618.51,20C288,20,20,288,20,618.51S288,1217,618.51,1217s598.5-268,598.5-598.5S949.05,20,618.51,20ZM615,779.86A166.33,166.33,0,1,1,781.28,613.53,166.33,166.33,0,0,1,615,779.86Z"/><path class="cls-2" d="M618.51,1217c330.54,0,598.5-268,598.5-598.5a599.15,599.15,0,0,0-21.76-160.43c3.18,65.65-12.16,115.28-31.55,155.45-19.91,41.23-35.54,39.81-35.54,115.15s-25.59,143.59-55.45,186.23-65.39,38.39-109.46,96.67S838.15,1141,774.17,1149.48s-103.77-7.11-149.27-15.64-52.6,18.48-105.19,21.33-93.33,30.31-93.35,30.32A597.54,597.54,0,0,0,618.51,1217Z"/><rect class="cls-3" x="329.21" y="487.01" width="32.7" height="73.92" rx="11.5" ry="11.5" transform="translate(471.71 -90.88) rotate(45)"/><rect class="cls-3" x="997.37" y="582.26" width="32.7" height="73.92" rx="11.5" ry="11.5" transform="matrix(-0.14, 0.99, -0.99, -0.14, 1765.33, -300.63)"/><rect class="cls-3" x="1011.58" y="410.24" width="32.7" height="73.92" rx="11.5" ry="11.5" transform="translate(-36.26 94.88) rotate(-5.19)"/><rect class="cls-3" x="140.13" y="761.38" width="32.7" height="73.92" rx="11.5" ry="11.5" transform="translate(-654.03 728.29) rotate(-73.97)"/><rect class="cls-4" x="511.18" y="940.5" width="32.7" height="73.92" rx="11.5" ry="11.5" transform="translate(-398.18 1591.3) rotate(-95.19)"/><rect class="cls-4" x="147.24" y="383.23" width="32.7" height="73.92" rx="11.5" ry="11.5" transform="translate(58.8 -18.38) rotate(7.83)"/><rect class="cls-4" x="418.77" y="199.84" width="32.7" height="73.92" rx="11.5" ry="11.5" transform="translate(-40 377.03) rotate(-45)"/><rect class="cls-5" x="641.96" y="272.34" width="32.7" height="73.92" rx="11.5" ry="11.5" transform="translate(151.4 -212.31) rotate(20.65)"/><rect class="cls-5" x="737.21" y="933.39" width="32.7" height="73.92" rx="11.5" ry="11.5" transform="translate(1029.64 -226.82) rotate(50.82)"/><rect class="cls-5" x="329.21" y="761.38" width="32.7" height="73.92" rx="11.5" ry="11.5" transform="translate(1172.05 1069.75) rotate(131.58)"/><path class="cls-6" d="M618.51,20C288,20,20,288,20,618.51a596.15,596.15,0,0,0,143.58,388.91c-.1-.17-64.7-111-81.74-197.71S52,677.5,62,613.53s42.64-69.66,58.28-129.37,18.48-103.77,42.65-146.42,66.82-28.43,106.62-78.19S330.63,158.61,376.12,143s99.52-4.27,167.75-19.91,75.35-42.64,135.06-46.91,170.38-28.78,376.6,133.44C946.32,92.92,790.93,20,618.51,20Z"/><path class="cls-7" d="M1197,618.51q0,23.91-1.88,47.76-.92,11.57-2.27,23.09-.34,2.86-.71,5.73c-.05.41-.4,3.17-.07.61.35-2.74-.11.76-.2,1.42q-.8,5.7-1.7,11.37a595,595,0,0,1-21.62,89.76q-6.91,21.29-15.42,42c-.61,1.49-2.31,5.49-.75,1.84-.73,1.71-1.45,3.41-2.2,5.11q-2.37,5.47-4.87,10.88-4.63,10.1-9.64,20a599.68,599.68,0,0,1-46,76.26c-4.4,6.19-8.94,12.28-13.54,18.33,2.11-2.77.3-.4-.72.91s-2.27,2.88-3.42,4.31q-3.67,4.59-7.44,9.12-14.05,16.88-29.31,32.71-15.51,16.08-32.19,31-8.19,7.32-16.64,14.34-4.23,3.51-8.52,6.94c-1.43,1.15-2.87,2.28-4.31,3.42-.62.48-1.24,1-1.85,1.45-2.33,1.84,3.75-2.86-.31.23A614.41,614.41,0,0,1,897,1125.7q-19.77,10.9-40.33,20.28-4.7,2.16-9.43,4.21l-5.12,2.2c3.92-1.67-1.12.46-2.57,1q-10.35,4.23-20.85,8.07A594.59,594.59,0,0,1,731,1186.13q-11.61,2.31-23.33,4.17-5.26.84-10.56,1.58c-.66.09-4.16.55-1.42.2,2.56-.33-.2,0-.61.07-2.18.27-4.36.55-6.55.8q-23.56,2.76-47.29,3.63a605.24,605.24,0,0,1-94.41-3.82l-5.73-.71c-2.36-.28,1,.14,1.23.17l-3.26-.45q-5.69-.81-11.36-1.72-11.29-1.83-22.52-4.08-22.63-4.56-44.88-10.86-22-6.24-43.5-14.15-10.49-3.87-20.81-8.12l-2.95-1.23c.18.08,3.21,1.4,1.11.47-1.69-.75-3.41-1.46-5.11-2.2q-5.1-2.24-10.15-4.56a596.91,596.91,0,0,1-78.71-43.65c-12.27-8.07-24.18-16.63-35.87-25.52,3.69,2.81-.69-.55-1.53-1.21q-2.16-1.7-4.31-3.42-4.59-3.68-9.11-7.45-8.43-7-16.6-14.38a601.78,601.78,0,0,1-61.34-63.87q-3.49-4.23-6.93-8.53-1.71-2.14-3.4-4.31c-.49-.61-1-1.24-1.45-1.86,1,1.28,1.58,2.08.25.32-4.59-6.05-9.11-12.16-13.49-18.37q-12.94-18.33-24.48-37.61-11.37-19-21.31-38.77-5-9.93-9.6-20-2.31-5.05-4.53-10.16c-.32-.76-2.46-5.78-1.49-3.47.87,2.08-1.41-3.43-1.74-4.23a594.11,594.11,0,0,1-27.69-86.35q-5.38-22.61-9-45.58c-.55-3.52-1.06-7-1.56-10.56-.13-.93-.48-3.94,0,.42-.1-.82-.21-1.64-.31-2.46-.28-2.18-.54-4.37-.79-6.55q-1.34-11.54-2.21-23.11A607.16,607.16,0,0,1,42,569.92q1-12,2.4-23.9c.23-1.92.49-3.82.72-5.73-.44,3.62-.07.52.18-1.21q.86-6.09,1.85-12.17,3.74-22.92,9.24-45.5a614.73,614.73,0,0,1,28.14-86.14c.3-.74.62-1.47.92-2.21-1.61,3.93-.51,1.2-.16.38.64-1.46,1.26-2.92,1.9-4.38q2.39-5.46,4.88-10.87,4.82-10.44,10-20.69,10-19.71,21.52-38.65,11.63-19.2,24.67-37.47,3-4.17,6-8.27l3.29-4.41c.52-.68,4.09-5.35,2.73-3.59-1.5,1.95.12-.15.36-.46l1.94-2.47,3.42-4.3q3.69-4.59,7.47-9.1a601.74,601.74,0,0,1,61.67-63.54q8.2-7.31,16.68-14.3,4.23-3.49,8.53-6.92l3.7-2.92,1.08-.84c-2,1.55.73-.55,1.09-.83q17.87-13.55,36.63-25.81A597.67,597.67,0,0,1,381.08,90.7q5.06-2.31,10.17-4.51c1-.44,6.16-2.58,1.81-.79,2-.81,3.93-1.63,5.9-2.43q10.35-4.2,20.86-8Q441,67.29,462.65,61.25q22.25-6.21,45-10.68,11.24-2.2,22.54-4,5.68-.88,11.38-1.67c2.35-.34-1,.14-1.23.16,1.09-.13,2.18-.28,3.27-.42q3.27-.4,6.56-.78a606,606,0,0,1,94.48-3.3q23.67,1,47.22,3.88l4.91.62c-4.83-.59.9.13,2,.29q6.09.87,12.17,1.87,11.28,1.86,22.49,4.14a594.39,594.39,0,0,1,88.28,25.24c7,2.6,13.9,5.35,20.79,8.18.37.15,2.85,1.18.55.22-2.46-1,.69.29,1.27.55q2.21.94,4.38,1.9,5.46,2.39,10.87,4.9,20.48,9.48,40.2,20.49Q919,123.6,937.48,135.78q9.51,6.27,18.8,12.92,4.15,3,8.26,6,2.21,1.64,4.4,3.3c1.23.93,5.5,4.24,2.19,1.65A617.12,617.12,0,0,1,1036.89,219q15.45,16.16,29.68,33.42,3.5,4.24,6.91,8.55c1,1.23,1.94,2.47,2.91,3.7.55.69,2.29,3-.24-.32l1.91,2.49q6.66,8.76,13,17.76a599.83,599.83,0,0,1,46,77.16q5,9.94,9.54,20.06,2.29,5.07,4.5,10.18c.67,1.55,1.81,4.34.47,1.08.81,2,1.63,3.93,2.43,5.89q8.58,21.14,15.51,42.87a596.41,596.41,0,0,1,21,89.13q.89,5.68,1.66,11.39c-.56-4.07,0,.39.24,2,.24,1.91.46,3.82.68,5.74q1.27,11.11,2.12,22.29,1.76,23,1.75,46.1c0,10.46,9.19,20.48,20,20s20-8.79,20-20a615.33,615.33,0,0,0-113.24-356.68A632.49,632.49,0,0,0,992.88,126.32a617.86,617.86,0,0,0-850.72,97.8,630.65,630.65,0,0,0-96.86,162C21.07,445.17,6.76,508,1.82,571.58A621.27,621.27,0,0,0,17.58,765.45a619.65,619.65,0,0,0,344.75,416.06A627.16,627.16,0,0,0,548.48,1233a620.72,620.72,0,0,0,194.77-8.57,613.92,613.92,0,0,0,176-65.29A620.69,620.69,0,0,0,1172,894.75a611.92,611.92,0,0,0,57.39-179.68,645.07,645.07,0,0,0,7.63-96.56c0-10.47-9.21-20.49-20-20S1197,607.29,1197,618.51Z"/><g class="cls-8"><path class="cls-9" d="M787,573.73l-9.34,5a166.34,166.34,0,0,1-281,151.68h0L487,735.79s21.32,73.92,78.19,81S714.47,828.2,760,788.39s58.28-83.88,55.44-125.1S787,573.73,787,573.73Z"/></g><path class="cls-7" d="M761.28,613.53c0,4.21-.15,8.41-.47,12.6-.15,2.08-.35,4.15-.58,6.21-.3,2.63,1,2.55.11-.53.28,1-.47,3.07-.63,4.06a165.3,165.3,0,0,1-5.77,23.64c-1.24,3.82-2.65,7.56-4.12,11.3-1.37,3.47.5-.91.47-1.1.12.62-1.07,2.39-1.36,3q-1.38,3-2.88,6a166.49,166.49,0,0,1-12.59,20.84c-.56.79-4.07,5.82-2.34,3.25s-1.89,2.32-2.54,3.09q-4,4.79-8.32,9.25-3.87,4-8,7.74-2.43,2.19-4.94,4.29c-.68.56-1.35,1.12-2,1.66-.51.42-1,.83-1.54,1.23q-1.75,1.38,1.46-1.12c-.55,1.18-3.15,2.33-4.24,3.1q-2.69,1.9-5.43,3.7-5,3.24-10.16,6.11t-10.61,5.39c-1,.47-2,.86-3,1.37-2.39,1.23,3.63-1.39,1.1-.46-2.29.85-4.54,1.81-6.84,2.64a165.92,165.92,0,0,1-23.34,6.52q-3,.6-6,1.1c-.85.13-2.6.76-3.39.51.26.09,5-.58,1.22-.18-4.38.47-8.76.85-13.17,1a181.09,181.09,0,0,1-25.82-1c-3.78-.4.95.27,1.22.18-.79.25-2.54-.38-3.39-.51q-3-.49-6-1.1-6.3-1.27-12.49-3-5.49-1.56-10.86-3.49c-2.09-.75-4.15-1.57-6.22-2.38-2.48-1-.22.69,1.1.46-.57.1-3.1-1.38-3.63-1.63a165,165,0,0,1-21.32-11.86q-2.48-1.64-4.88-3.34c-1.09-.77-3.69-1.92-4.24-3.1l2,1.53-1.54-1.22c-.84-.7-1.7-1.38-2.54-2.08q-2.52-2.1-5-4.29a168,168,0,0,1-16.33-17c-.7-.84-1.38-1.69-2.07-2.53l-.41-.52c-1.32-1.68-1.09-1.37.71.94-1.18-.54-2.33-3.14-3.1-4.23q-3.81-5.37-7.18-11-2.86-4.82-5.41-9.82-1.35-2.66-2.61-5.36c-.37-.8-.72-1.62-1.1-2.42-1.83-3.91,1.4,3.61-.06-.11a179.25,179.25,0,0,1-7.58-23.61q-1.44-6-2.42-12c-.14-.85-.76-2.6-.52-3.38-.08.25.57,5,.18,1.22-.23-2.3-.48-4.59-.66-6.9a169.51,169.51,0,0,1,.06-25.89c.16-2.08.38-4.14.6-6.2.14-1.25.84-3.6-.18,1.22.19-.88.27-1.82.41-2.72q1.06-6.72,2.68-13.33a182.75,182.75,0,0,1,7.43-23c1.63-4.18-1.54,3.08-.2.49.5-1,.9-2,1.36-3q1.11-2.4,2.31-4.77c2-3.93,4.11-7.78,6.39-11.54q2.91-4.77,6.12-9.35c.7-1,2.31-4.24,3.48-4.77-1.52.69-2.27,2.85-.71.94.83-1,1.64-2,2.48-3.05a167.82,167.82,0,0,1,17.31-17.86q2-1.74,4-3.42c.77-.64,5.64-4.24,3.1-2.53s2.46-1.78,3.25-2.34q2.67-1.9,5.43-3.7a166.9,166.9,0,0,1,21.37-11.78c.63-.29,2.4-1.47,3-1.35-.2,0-4.58,1.84-1.1.47,1.86-.74,3.72-1.47,5.6-2.16q6-2.19,12.12-3.9,5.88-1.64,11.85-2.84,2.67-.54,5.37-1c1.12-.19,2.25-.35,3.38-.53,1.85-.3-4.59.54.14,0a167.73,167.73,0,0,1,25.84-.91c4.18.17,8.32.57,12.47,1,1.25.13,3.59.84-1.22-.18.88.18,1.82.26,2.71.41,2.25.35,4.49.76,6.72,1.21a164.47,164.47,0,0,1,24.6,7c1.66.62,3.31,1.28,5,1.93,3.48,1.37-.91-.51-1.1-.47.63-.12,2.4,1.06,3,1.35q5.72,2.63,11.21,5.67,5.19,2.88,10.16,6.11,2.47,1.62,4.89,3.32c.9.63,1.79,1.27,2.67,1.91.55.41,3.75,2.57,1.12.81s2.33,1.89,3.1,2.53c1.5,1.26,3,2.55,4.45,3.86q4.63,4.15,9,8.64c2.72,2.83,5.35,5.76,7.86,8.78,1,1.17,2.8,2.65,3.3,4.08-1.19-3.43-1.6-2.15-.35-.39.76,1.07,1.55,2.12,2.3,3.19A166.1,166.1,0,0,1,746.35,549q1.18,2.37,2.31,4.77c.46,1,.86,2,1.36,3,1.33,2.59-1.83-4.67-.2-.49,1.46,3.73,2.88,7.47,4.12,11.29a166.17,166.17,0,0,1,6,25c.14.9.22,1.84.41,2.72-1-4.82-.31-2.47-.19-1.22.23,2.29.49,4.58.66,6.89.32,4.19.45,8.4.47,12.6.05,10.46,9.17,20.49,20,20s20.05-8.79,20-20c-.16-38-11.73-76.31-34-107.26a191.13,191.13,0,0,0-89.34-68.1c-71.8-26.55-157.13-3.39-205.69,55.73a189.94,189.94,0,0,0-43.05,106.34,185.57,185.57,0,0,0,26.26,109.6c19,31.22,47.42,57.35,80.75,72.49a190.65,190.65,0,0,0,117.13,13.54C727,781,787.5,718.29,798.71,643.8a209,209,0,0,0,2.57-30.27c.05-10.46-9.23-20.48-20-20S761.33,602.32,761.28,613.53Z"/></g></g></svg>