<svg xmlns="http://www.w3.org/2000/svg" xmlns:xlink="http://www.w3.org/1999/xlink" viewBox="0 0 190.1 190.04"><defs><style>.cls-1{fill:url(#Dégradé_sans_nom_2);}.cls-2{fill:#fab95b;}.cls-3{fill:#fbeed7;}.cls-4{fill:#9bdda9;}.cls-5{fill:#ffbdfa;}.cls-6,.cls-9{fill:#fff;}.cls-6,.cls-8{opacity:0.9;}.cls-6{isolation:isolate;}.cls-7{fill:#1a3263;}</style><linearGradient id="Dégradé_sans_nom_2" x1="141.49" y1="10.75" x2="48.63" y2="171.57" gradientTransform="matrix(1, 0, 0, -1, 0, 186.2)" gradientUnits="userSpaceOnUse"><stop offset="0" stop-color="#e24040"/><stop offset="1" stop-color="#ff9494"/></linearGradient></defs><title>Fichier 2</title><g id="Calque_2" data-name="Calque 2"><g id="Calque_1-2" data-name="Calque 1"><g id="Calque_1-2-2" data-name="Calque 1-2"><path class="cls-1" d="M95.06,2.2A92.84,92.84,0,1,0,187.9,95,92.83,92.83,0,0,0,95.06,2.2Zm-.55,117.87a25.8,25.8,0,1,1,25.8-25.8,25.8,25.8,0,0,1-25.8,25.8Z"/><path class="cls-2" d="M95.06,187.87A92.89,92.89,0,0,0,184.52,70.15a48.23,48.23,0,0,1-4.89,24.12c-3.09,6.39-5.52,6.17-5.52,17.86s-4,22.27-8.6,28.89-10.14,5.95-17,15-19.41,20.07-29.33,21.39-16.1-1.1-23.16-2.43-8.15,2.87-16.31,3.31A31.74,31.74,0,0,0,65.26,183,92.66,92.66,0,0,0,95.06,187.87Z"/><path class="cls-3" d="M56.77,76.32h0a2.51,2.51,0,0,1,0,3.58l-4.52,4.52a2.53,2.53,0,0,1-3.58,0h0a2.53,2.53,0,0,1,0-3.58l4.52-4.52A2.53,2.53,0,0,1,56.77,76.32Z"/><path class="cls-3" d="M162.05,95.93h0a2.53,2.53,0,0,1-2.85,2.17l-6.34-.87a2.54,2.54,0,0,1-2.17-2.86h0a2.54,2.54,0,0,1,2.86-2.17l6.34.87A2.54,2.54,0,0,1,162.05,95.93Z"/><path class="cls-3" d="M158.05,62.76h0a2.54,2.54,0,0,1,2.75,2.3l.58,6.37a2.53,2.53,0,0,1-2.3,2.75h0a2.53,2.53,0,0,1-2.75-2.29l-.58-6.37A2.54,2.54,0,0,1,158.05,62.76Z"/><path class="cls-3" d="M17.89,121.35h0A2.52,2.52,0,0,1,21,119.61l6.15,1.77a2.53,2.53,0,0,1,1.74,3.13h0a2.53,2.53,0,0,1-3.14,1.74l-6.15-1.77A2.53,2.53,0,0,1,17.89,121.35Z"/><path class="cls-4" d="M75.24,151.24h0a2.54,2.54,0,0,1,2.3-2.75l6.37-.58a2.53,2.53,0,0,1,2.75,2.29h0A2.54,2.54,0,0,1,84.37,153l-6.37.58A2.55,2.55,0,0,1,75.24,151.24Z"/><path class="cls-4" d="M25.28,58.59h0a2.54,2.54,0,0,1,2.17,2.86l-.87,6.33A2.54,2.54,0,0,1,23.72,70h0a2.54,2.54,0,0,1-2.17-2.86l.88-6.33A2.53,2.53,0,0,1,25.28,58.59Z"/><path class="cls-4" d="M62.56,31.77h0a2.54,2.54,0,0,1,3.59,0l4.52,4.53a2.53,2.53,0,0,1,0,3.58h0a2.54,2.54,0,0,1-3.59,0l-4.52-4.52A2.54,2.54,0,0,1,62.56,31.77Z"/><path class="cls-5" d="M103.26,41.7h0A2.55,2.55,0,0,1,104.74,45l-2.26,6a2.52,2.52,0,0,1-3.26,1.47h0a2.51,2.51,0,0,1-1.48-3.26l2.25-6A2.55,2.55,0,0,1,103.26,41.7Z"/><path class="cls-5" d="M120.45,146h0a2.53,2.53,0,0,1-.37,3.56l-5,4a2.54,2.54,0,0,1-3.57-.36h0a2.54,2.54,0,0,1,.36-3.57l5-4A2.54,2.54,0,0,1,120.45,146Z"/><path class="cls-5" d="M57,126.74h0a2.53,2.53,0,0,1-3.58.21l-4.79-4.24a2.54,2.54,0,0,1-.21-3.58h0a2.53,2.53,0,0,1,3.58-.21l4.78,4.24A2.53,2.53,0,0,1,57,126.74Z"/><path class="cls-6" d="M95.06,2.2A92.84,92.84,0,0,0,24.5,155.36s-10-17.23-12.68-30.67-4.63-20.5-3.09-30.43,6.62-10.8,9-20.06,2.87-16.1,6.62-22.72,10.36-4.41,16.54-12.12S50.41,23.7,57.47,21.27s15.43-.66,26-3.08,11.68-6.62,20.94-7.28,26.43-4.47,58.42,20.7A92.58,92.58,0,0,0,95.06,2.2Z"/><path class="cls-7" d="M185.69,95A90.64,90.64,0,1,1,113.26,6.22,90.61,90.61,0,0,1,185.69,95c0,2.83,4.41,2.84,4.41,0A95,95,0,1,0,55.8,181.6a95,95,0,0,0,107.88-20.81A95.15,95.15,0,0,0,189,109.66,98,98,0,0,0,190.1,95C190.1,92.2,185.69,92.19,185.69,95Z"/><g class="cls-8"><path class="cls-9" d="M121.19,88.09l-1.45.77A25.8,25.8,0,0,1,76.16,112.4h0l-1.5.83S78,124.69,86.79,125.8s23.15,1.76,30.21-4.41,9-13,8.6-19.41S121.19,88.09,121.19,88.09Z"/></g><path class="cls-7" d="M118.1,94.26a23.31,23.31,0,1,1-.25-3.66,25,25,0,0,1,.27,3.66c0,2.84,4.42,2.85,4.41,0a28.17,28.17,0,1,0-.39,4.54,31.36,31.36,0,0,0,.38-4.54C122.53,91.42,118.12,91.42,118.1,94.26Z"/></g></g></g></svg>