<svg xmlns="http://www.w3.org/2000/svg" xmlns:xlink="http://www.w3.org/1999/xlink" viewBox="0 0 2398.44 1312.03"><defs><style>.cls-1{fill:url(#Dégradé_sans_nom_2);}.cls-2{fill:url(#Dégradé_sans_nom_2-2);}.cls-3{isolation:isolate;}.cls-12,.cls-3{font-size:1200px;fill:#1a3263;font-family:FuturaBT-Medium, Futura Md BT;letter-spacing:0.05em;}.cls-4{fill:url(#Dégradé_sans_nom_3);}.cls-5{fill:url(#Dégradé_sans_nom_4);}.cls-6{fill:#fab95b;}.cls-7{fill:#fbeed7;}.cls-8{fill:#9bdda9;}.cls-9{fill:#ffbdfa;}.cls-10{fill:#ffd1ae;}.cls-11{fill:#fff;}</style><linearGradient id="Dégradé_sans_nom_2" x1="2043.51" y1="315.51" x2="2351" y2="315.51" gradientTransform="matrix(1, 0, 0, -1, 0, 1313.02)" gradientUnits="userSpaceOnUse"><stop offset="0" stop-color="#1a3263"/><stop offset="1" stop-color="#1a3263" stop-opacity="0"/></linearGradient><linearGradient id="Dégradé_sans_nom_2-2" x1="427.61" y1="315.51" x2="753" y2="315.51" xlink:href="#Dégradé_sans_nom_2"/><linearGradient id="Dégradé_sans_nom_3" x1="1166.03" y1="315.51" x2="1561.74" y2="315.51" gradientTransform="matrix(1, 0, 0, -1, 0, 1313.02)" gradientUnits="userSpaceOnUse"><stop offset="0" stop-color="#e24040"/><stop offset="1" stop-color="#ff9494" stop-opacity="0"/></linearGradient><linearGradient id="Dégradé_sans_nom_4" x1="1361.04" y1="339.85" x2="939.96" y2="1069.16" gradientTransform="matrix(1, 0, 0, -1, 0, 1313.02)" gradientUnits="userSpaceOnUse"><stop offset="0" stop-color="#e24040"/><stop offset="1" stop-color="#ff9494"/></linearGradient></defs><title>Fichier 1</title><g id="Calque_2" data-name="Calque 2"><g id="Calque_1-2" data-name="Calque 1"><g id="Calque_2-2" data-name="Calque 2"><g id="Calque_1-2-2" data-name="Calque 1-2"><rect class="cls-1" x="2043.51" y="966.01" width="307.49" height="63"/><rect class="cls-2" x="427.61" y="966.01" width="325.39" height="63"/><text class="cls-3" transform="translate(0 1029.02)">4</text><rect class="cls-4" x="1166.03" y="966.01" width="395.71" height="63"/><path class="cls-5" d="M1150.5,187.51c-232.51,0-421,188.49-421,421s188.49,421,421,421,421-188.48,421-421S1383,187.51,1150.5,187.51ZM1148,722a117,117,0,1,1,117-117h0A117,117,0,0,1,1148,722Z"/><path class="cls-6" d="M1150.5,1029.51c232.51,0,421-188.48,421-421a421.46,421.46,0,0,0-15.3-112.84c2.23,46.18-8.56,81.09-22.2,109.34-14,29-25,28-25,81s-18,101-39,131-46,27-77,68-88,91-133,97-73-5-105-11-37,13-74,15-65.64,21.32-65.66,21.34A420.6,420.6,0,0,0,1150.5,1029.51Z"/><path class="cls-7" d="M976.89,523.62h0a11.5,11.5,0,0,1,0,16.26l-20.5,20.51a11.51,11.51,0,0,1-16.27,0h0a11.5,11.5,0,0,1,0-16.26l20.51-20.51A11.5,11.5,0,0,1,976.89,523.62Z"/><path class="cls-7" d="M1454.36,612.62h0a11.48,11.48,0,0,1-12.95,9.82l-28.73-4a11.49,11.49,0,0,1-9.83-13h0a11.49,11.49,0,0,1,13-9.82l28.73,3.95A11.49,11.49,0,0,1,1454.36,612.62Z"/><path class="cls-7" d="M1436.12,462.2h0a11.5,11.5,0,0,1,12.5,10.41l2.62,28.88a11.51,11.51,0,0,1-10.41,12.5h0a11.51,11.51,0,0,1-12.5-10.42l-2.62-28.88A11.5,11.5,0,0,1,1436.12,462.2Z"/><path class="cls-7" d="M800.52,727.84h0A11.49,11.49,0,0,1,814.74,720l27.88,8a11.49,11.49,0,0,1,7.87,14.23h0a11.49,11.49,0,0,1-14.22,7.87l-27.88-8A11.49,11.49,0,0,1,800.52,727.84Z"/><path class="cls-8" d="M1060.67,863.41h0a11.5,11.5,0,0,1,10.42-12.49l28.88-2.63a11.5,11.5,0,0,1,12.49,10.42h0a11.51,11.51,0,0,1-10.41,12.49l-28.88,2.62A11.5,11.5,0,0,1,1060.67,863.41Z"/><path class="cls-8" d="M834.09,443.19h0a11.5,11.5,0,0,1,9.82,13L840,484.88a11.51,11.51,0,0,1-13,9.83h0a11.5,11.5,0,0,1-9.82-13l4-28.73A11.49,11.49,0,0,1,834.09,443.19Z"/><path class="cls-8" d="M1003.11,321.62h0a11.51,11.51,0,0,1,16.27,0l20.5,20.51a11.5,11.5,0,0,1,0,16.26h0a11.5,11.5,0,0,1-16.26,0l-20.51-20.5A11.51,11.51,0,0,1,1003.11,321.62Z"/><path class="cls-9" d="M1193.68,365h0a11.55,11.55,0,0,1,6.79,14.84l-10.15,27.26a11.53,11.53,0,0,1-14.84,6.78h0a11.53,11.53,0,0,1-6.78-14.83l10.15-27.26A11.53,11.53,0,0,1,1193.68,365Z"/><path class="cls-9" d="M1265.62,839.59h0a11.51,11.51,0,0,1-1.65,16.18l-22.48,18.32a11.5,11.5,0,0,1-16.18-1.65h0a11.5,11.5,0,0,1,1.65-16.18l22.48-18.32A11.51,11.51,0,0,1,1265.62,839.59Z"/><path class="cls-9" d="M978,752.36h0a11.49,11.49,0,0,1-16.23,1L940,734.09a11.51,11.51,0,0,1-1-16.24h0a11.51,11.51,0,0,1,16.24-1L977,736.13A11.49,11.49,0,0,1,978,752.36Z"/><path class="cls-10" d="M1150.5,187.51c-232.51,0-421,188.49-421,421a419.34,419.34,0,0,0,101,273.57C830.43,882,785,804,773,743s-21-93-14-138,30-49,41-91,13-73,30-103,47-20,75-55,46-64,78-75,67-10,115-21,53-30,95-33,119.85-20.24,264.91,93.87A419.82,419.82,0,0,0,1150.5,187.51Z"/><path class="cls-10" d="M1269,577l-6.57,1.55a117,117,0,0,1-197.64,106.69v2L1058,691s15,52,55,57,105,8,137-20,41-59,39-88S1269,577,1269,577Z"/><path class="cls-11" d="M937.18,289.23a209.46,209.46,0,0,1,25.36-14.44c4.39-2.1,5.54-8.37,3.23-12.32-2.62-4.48-7.91-5.33-12.31-3.23a209.66,209.66,0,0,0-25.37,14.45C918.48,280.07,927.48,295.69,937.18,289.23Z"/><path class="cls-11" d="M853.18,365.44c1.23-1.83,2.56-3.59,3.89-5.34s-.75.95.13-.18c.42-.53.83-1.06,1.25-1.58.95-1.19,1.91-2.38,2.88-3.55q3.33-4,6.82-7.88a241.52,241.52,0,0,1,44-38.68c9.54-6.44.55-22-9.09-15.54-25,16.86-48.51,38.53-65.45,63.66-6.5,9.63,9.09,18.65,15.54,9.09Z"/></g></g><text class="cls-12" transform="translate(1613.64 1029)">4</text></g></g></svg>