<?xml version="1.0" encoding="UTF-8"?>
<svg width="22px" height="22px" viewBox="0 0 22 22" version="1.1" xmlns="http://www.w3.org/2000/svg" xmlns:xlink="http://www.w3.org/1999/xlink">
    <!-- Generator: Sketch 54 (76480) - https://sketchapp.com -->
    <title>Icon / X red</title>
    <desc>Created with Sketch.</desc>
    <g id="Page-1" stroke="none" stroke-width="1" fill="none" fill-rule="evenodd">
        <g id="Share" transform="translate(-1052.000000, -228.000000)" fill="#FF7657" fill-rule="nonzero">
            <g id="Icon-/-X-red" transform="translate(1052.000000, 228.000000)">
                <path d="M13.2223356,11 L21.5397392,19.3174036 C22.1534203,19.9310847 22.1534203,20.9260582 21.5397392,21.5397392 C20.9260582,22.1534203 19.9310847,22.1534203 19.3174036,21.5397392 L11,13.2223356 L2.68259637,21.5397392 C2.06891534,22.1534203 1.0739418,22.1534203 0.460260772,21.5397392 C-0.153420257,20.9260582 -0.153420257,19.9310847 0.460260772,19.3174036 L8.7776644,11 L0.460260772,2.68259637 C-0.153420257,2.06891534 -0.153420257,1.0739418 0.460260772,0.460260772 C1.0739418,-0.153420257 2.06891534,-0.153420257 2.68259637,0.460260772 L11,8.7776644 L19.3174036,0.460260772 C19.9310847,-0.153420257 20.9260582,-0.153420257 21.5397392,0.460260772 C22.1534203,1.0739418 22.1534203,2.06891534 21.5397392,2.68259637 L13.2223356,11 Z" id="Combined-Shape"></path>
            </g>
        </g>
    </g>
</svg>