<?xml version="1.0" encoding="utf-8"?>
<!-- Generator: Adobe Illustrator 23.0.3, SVG Export Plug-In . SVG Version: 6.00 Build 0)  -->
<svg version="1.1" id="Calque_1" xmlns="http://www.w3.org/2000/svg" xmlns:xlink="http://www.w3.org/1999/xlink" x="0px" y="0px"
	 viewBox="0 0 480 50" style="enable-background:new 0 0 480 50;" xml:space="preserve">
<style type="text/css">
	.st0{fill:#FFCE00;}
	.st1{fill:#F2C300;}
	.st2{fill:#FFD939;}
	.st3{fill:#1A3263;}
</style>
<g>
	<g id="Calque_2-2">
		<polygon class="st0" points="464.7,5.5 453.4,22.7 461.9,42.4 474.8,26.4 		"/>
		<polygon class="st1" points="-0.7,22 -0.7,6.6 463.6,7.3 454.9,22 		"/>
		<polygon class="st2" points="-2.7,43.1 -0.7,22 453.4,22.5 467.1,42.4 		"/>
		<path class="st3" d="M-0.7,9.6h459.1c1.9,0,4.4,0.4,6.2,0c0.3,0,0.5,0,0.8,0l-2.6-1.5l5.8,11.6l3.3,6.9c0.2,0.3,0.5,1.6,0.9,1.7
			c1,0.5,1.5-2.6,0.3-2.1c-1.4,0.6-3.1,3.4-4.1,4.5l-6.3,7c-0.2,0.2-3.3,3.5-3.2,3.6c-0.3-0.3,2.3-0.2,1.7-0.8c-0.6-0.5-4.7,0-5.6,0
			h-12.4l-101.7-0.1L198,40.3L65.9,40.2H21.5c-7,0-14.3-0.4-21.3,0c-0.3,0-0.6,0-0.9,0c-3.9,0-3.9,6,0,6h56.1l129.3,0.1l146.9,0.1
			l107.7,0.1c7,0,14.3,0.6,21.4,0c4.6-0.3,7.9-6.3,10.7-9.4c2.1-2.3,7.5-6.3,7.2-9.9c-0.3-3.5-3.5-7.8-5.1-11L468,5.1
			c-0.5-0.9-1.5-1.5-2.6-1.5H18.2c-6,0-12.1-0.4-18.1,0c-0.3,0-0.5,0-0.8,0C-4.6,3.6-4.6,9.6-0.7,9.6L-0.7,9.6z"/>
		<path class="st3" d="M463.1,5.2l-6.3,9.6c-1.5,2.3-5,5.7-4.3,8.7c0.7,3,3,6.5,4.3,9.4l4.6,10.2c0.8,1.8,3.4,0.2,2.6-1.5l-3.8-8.4
			l-3.1-6.8c-0.5-1-1.7-2.8-1.8-3.9c0.4-0.5,0.8-1.1,1.1-1.6l3.6-5.4l5.8-8.8C466.8,5.1,464.2,3.6,463.1,5.2z"/>
		<path class="st3" d="M453.9,20.5H17.8c-5.7,0-12.1-0.9-17.8,0c-0.3,0-0.5,0-0.8,0c-0.8,0-1.5,0.7-1.5,1.5s0.7,1.5,1.5,1.5h436.1
			c5.7,0,12.1,0.9,17.8,0c0.3,0,0.5,0,0.8,0c0.8,0,1.5-0.7,1.5-1.5S454.7,20.5,453.9,20.5z"/>
	</g>
</g>
</svg>
