<svg xmlns="http://www.w3.org/2000/svg" viewBox="0 0 191.92 194.28"><defs><style>.cls-1{fill:#1a3263;}</style></defs><title>Fichier 12</title><g id="Calque_2" data-name="Calque 2"><g id="Calque_2-2" data-name="Calque 2"><path class="cls-1" d="M14,159.88H167.21c3.11,0,6.46-.35,9.56,0,1,.11,1.12-.15,2.09.49,2.25,1.48,1.14,7.07,1.14,9.5,0,3.83.46,8-1.34,11.49a12.25,12.25,0,0,1-10.85,6.52c-2.53.08-5.08,0-7.61,0H31.56c-2.46,0-4.95.08-7.41,0A12.32,12.32,0,0,1,13,180.79c-1.56-3.43-1-7.73-1-11.41,0-2.15-1.23-9.07,2-9.5,3.77-.51,3.82-6.52,0-6-10.17,1.37-8,12.38-8,20,0,10,5.93,19.07,16.63,19.95,8.24.67,16.75.06,25,.06H149.83c8.09,0,19.93,1.85,27.26-2.46,9.12-5.38,8.91-14.79,8.91-24,0-6.33-.32-13.1-8.39-13.51-8.87-.46-17.88,0-26.75,0H99.5c-28,0-56-.55-84,0H14C10.14,153.88,10.13,159.88,14,159.88Z"/><path class="cls-1" d="M61.93,5.15q-3.55,1.19-7,2.59a3.1,3.1,0,0,0-2.09,3.7c.39,1.41,2.18,2.71,3.69,2.09,2.31-.95,4.64-1.81,7-2.59,3.65-1.21,2.09-7-1.59-5.79Z"/><path class="cls-1" d="M40.55,15.16C16.63,30.28.3,55.13,0,83.88a3,3,0,0,0,3,3H188a3,3,0,0,0,3-3c-.23-25.14-12.88-48-32.63-63.21C135.91,3.38,107-2.76,79.18,1.12c-3.8.53-2.18,6.31,1.6,5.79,25.67-3.59,52.72,2.35,73.51,18.14,18.53,14.06,30.5,35.38,30.71,58.83l3-3H3l3,3c.27-26.6,15.46-49.55,37.58-63.54,3.25-2.05.25-7.25-3-5.18Z"/><path class="cls-1" d="M51.51,102.69c3.2-2.08,6.12-2.29,9.05.11,1.4,1.15,2.26,2.3,4,3A12,12,0,0,0,76,104.1c2.13-1.58,4-5.17,7.08-4.27,2.11.62,4.74,3.77,6.47,5.08,3,2.31,6.49,4,10,1.6,3.88-2.69,7.33-6.88,12.74-5,3.29,1.16,5.44,3.15,9.17,3.42,4.34.31,7.87-.78,11.77-2.47,4.58-2,6.28-1,10.07,1.43a15.27,15.27,0,0,0,11.36,1.67c3.7-.91,5.4-4.4,9.38-4.4,4.44,0,7,3,10.77,4.72a15.25,15.25,0,0,0,11.75-.14c7.22-3.26,1.49-9.88-1.78-13.67-2.56-3-6.61-9.5-10.77-10.22-4.57-.79-9.92-.07-14.53-.1l-34.32-.22-80-.52C37,81,28.84,80.71,20.7,80.89c-3,.06-4,1.69-5.79,4l-11,14a3.07,3.07,0,0,0,.61,4.71,13.78,13.78,0,0,0,10.68,2.25c3.4-.71,5.87-3.28,9.15-4.14,3.11-.81,5.58.28,8.17,1.89,3.28,2,6.3-3.14,3-5.18C31.61,96,27.3,94.72,22.73,96c-5.32,1.47-9.73,6.61-15.22,2.5l.61,4.71,9.44-12c.82-1,3.52-3.42,3.75-4.76s-1,1.63-1.73.48c0,.06.54,0,.6,0,1.55.55,4.33,0,6,0l11.8.08,73.71.47,59.1.39a12.14,12.14,0,0,0,2.41,0c2.19-.48-1.75,1.39-1.15-.74-.17.58,4.16,4.41,4.57,4.85,2.46,2.67,4.63,5.64,7.08,8.3a6.79,6.79,0,0,1,.59,1c.74-1.52-3.65-.37-3.63-.37a7.71,7.71,0,0,1-4.84-1.3c-3.36-2-6.19-4-10.26-4.31a12.92,12.92,0,0,0-9.6,2.68c-3.63,2.87-7.31,2.35-11-.23a12,12,0,0,0-10-2.21c-4.2.91-7.39,3.53-11.9,3.5-4.35,0-6.91-3-11-3.65a16.85,16.85,0,0,0-12.71,3.47c-3,2.27-3.91,3.13-7.28.4a46.47,46.47,0,0,0-5.89-4.58c-4.2-2.36-7.72-.82-11,2.16-2.39,2.14-5,4.92-8.46,3.3-1.73-.8-2.78-2.73-4.53-3.68-4.45-2.4-9.52-1.58-13.6,1.08-3.23,2.1-.22,7.3,3,5.18Z"/><path class="cls-1" d="M18.25,99.75v15.13a3,3,0,0,0,3,3H170a3,3,0,0,0,3-3v-15c0-3.86-6-3.87-6,0v15l3-3H21.25l3,3V99.75c0-3.86-6-3.86-6,0Z"/><path class="cls-1" d="M113.32,158.49l29.77-23.33c.29-.23,4.06-2.81,4-3.11.31,1.07-3.56.48-.59.83a41.34,41.34,0,0,0,4.59,0c6.29,0,12.84.54,19.11-.06,10.62-1,13.45-15.69,3.45-20.06-2.54-1.11-5.36-.88-8.07-.88H39.46c-6.2,0-16.94-1.87-22.3,2.18C9,120.2,14,132.38,23.52,132.88c4.33.22,8.73,0,13.07,0H71.77c1.91,0,4.41.43,6.28,0,.64-.15,1.9.39-.11-.43s-.52,0,0,.63c1.87,2.27,4.26,4.26,6.34,6.34l16.35,16.35,3.23,3.23c2.73,2.73,7-1.51,4.24-4.24L83.67,130.3c-2.33-2.33-3.51-3.42-6.84-3.42H37c-4.32,0-8.86.42-13.15,0-6-.6-6.27-8.23-.36-9,.52-.07,1.07,0,1.59,0,3.15-.14,6.34,0,9.49,0H166.7a23.22,23.22,0,0,1,2.36,0c5.06.48,7,6.91,1.57,8.69-2.46.8-5.53.31-8.08.31H150.21c-2.05,0-4.81-.47-6.72.41a22.25,22.25,0,0,0-3.64,2.84l-30.77,24.12c-3,2.38,1.23,6.6,4.24,4.24Z"/><path class="cls-1" d="M145,132.88c9.83,0,19.67-.22,29.5,0,8.79.19,15.37,9.64,9,17.21-2.63,3.13-6.06,3.74-9.8,3.79-18.51.23-37,0-55.54,0H20.36a19.66,19.66,0,0,1-6.07-.5c-11.55-3.72-8.06-19.8,3.23-20.5,10.32-.64,20.89,0,31.23,0H79c3.86,0,3.87-6,0-6-20.42,0-41-.81-61.42,0-8.47.33-15.8,6.41-16.51,15.12a16.7,16.7,0,0,0,15.05,17.81c5.24.46,10.65.07,15.89.07,47.46,0,95,.59,142.42,0,5.94-.08,11.48-2.34,14.85-7.45a16.64,16.64,0,0,0-7.38-24.23c-5.55-2.35-12.81-1.32-18.68-1.32H145c-3.86,0-3.87,6,0,6Z"/><rect class="cls-1" x="32" y="60.88" width="9" height="4" rx="2" ry="2" transform="translate(46.45 -9.14) rotate(38)"/><rect class="cls-1" x="115" y="48.88" width="9" height="4" rx="2" ry="2" transform="translate(103.81 -78.05) rotate(60)"/><rect class="cls-1" x="95" y="67.88" width="9" height="4" rx="2" ry="2" transform="translate(4.71 -6.26) rotate(3.69)"/><rect class="cls-1" x="71" y="46.88" width="9" height="4" rx="2" ry="2" transform="translate(-13.52 36.07) rotate(-24.73)"/><rect class="cls-1" x="159" y="64.88" width="9" height="4" rx="2" ry="2" transform="translate(0.6 135.2) rotate(-45)"/><rect class="cls-1" x="126" y="24.88" width="9" height="4" rx="2" ry="2" transform="translate(-1.54 9.04) rotate(-3.95)"/><rect class="cls-1" x="85" y="18.88" width="9" height="4" rx="2" ry="2" transform="translate(35.72 -53.65) rotate(41.05)"/></g></g></svg>