<svg xmlns="http://www.w3.org/2000/svg" viewBox="0 0 247.25 271.49"><defs><style>.cls-1{fill:#1a3263;}</style></defs><title>Fichier 24</title><g id="Calque_2" data-name="Calque 2"><g id="Calque_2-2" data-name="Calque 2"><path class="cls-1" d="M195.27,17a214.6,214.6,0,0,1,34,13.38c3.09,1.56,6.15,3.2,9.14,5,.9.53,1.79,1.08,2.68,1.64s.49-.61.49-.42c0,.87-1.32,2.54-1.71,3.29l-3.75,7.23-30,57.73-74,142.6-5.53,10.66c-1,1.91-2.64,4.1-3.22,6.19a5.18,5.18,0,0,1-.63,1.21c.11-.16,1,.44.76-.36a16.21,16.21,0,0,0-1.5-2.93l-8.72-17c-1.77-3.44-7-.41-5.19,3l8,15.59c2.23,4.36,6.9,11.85,11.8,4.78,2-2.9,3.39-6.53,5-9.65l31.54-60.77L240.3,52c2.12-4.09,4.78-8.2,6.48-12.49,2.81-7.08-7.66-10.75-12.53-13.29a221.24,221.24,0,0,0-37.38-15c-3.7-1.13-5.29,4.66-1.6,5.79Z"/><path class="cls-1" d="M89.89,212.79,101,234.42c1.77,3.44,7,.41,5.19-3L95.07,209.77c-1.76-3.44-6.94-.41-5.18,3Z"/><path class="cls-1" d="M83,195.64c3.86,0,3.86-6,0-6s-3.87,6,0,6Z"/><path class="cls-1" d="M80,193.52v43.16c0,5.41-1.27,13.52,6.3,14.32,8.84.93,8-8.79,8.15-14.58l.77-24.31c.12-3.87-5.88-3.86-6,0l-.71,22.52-.2,6.41c0,.54.27,2.93-.11,3.34-2.8,3.08-2.2-4.12-2.2-4.67V193.52c0-3.86-6-3.87-6,0Z"/><path class="cls-1" d="M64,161.52V194.8c0,2-.34,4.34.1,6.32,1,4.63,7,6.19,10.9,4,3.13-1.71,3.19-4.49,3.32-7.6l.9-21.89c.16-3.86-5.84-3.85-6,0l-.73,17.57c0,1.08.51,6.31-.29,7.09-.39.38-2.11-.39-2.2-.53-.25-.35,0-2.05,0-2.46V161.52c0-3.86-6-3.87-6,0Z"/><path class="cls-1" d="M73.45,180.68,76.7,187c.94,1.82,3,4.44,3.25,6.49.45,3.79,6.45,3.83,6,0-.37-3.09-2.15-5.79-3.56-8.53l-3.76-7.33c-1.76-3.44-6.94-.41-5.18,3Z"/><path class="cls-1" d="M175,5.69a281.91,281.91,0,0,0-114.95.46A205.55,205.55,0,0,0,22.59,18c-4,1.73-8,3.6-11.84,5.67-3.14,1.69-7.49,3.53-9.44,6.64-3.16,5,.09,9.84,2.39,14.32L13.85,64.42,44,123.31l20.32,39.63c1.76,3.44,6.94.4,5.18-3L25.22,73.46,13.12,49.85C11,45.8,8,41.48,6.6,37.13c-.9-2.75.44-4.45,2.87-5.89,3-1.79,6.17-3.44,9.35-5A179.71,179.71,0,0,1,50.21,14.73C90,3.9,133.12,3.33,173.41,11.48c3.77.76,5.38-5,1.59-5.79Z"/><path class="cls-1" d="M97.19,35.26c29.9-3.48,58.85,3.24,86.94,13.15a359.71,359.71,0,0,1,44.68,18.87c3.43,1.77,6.47-3.41,3-5.18a370.87,370.87,0,0,0-46.11-19.48c-28.55-10.06-58.17-16.89-88.54-13.36-3.79.44-3.84,6.44,0,6Z"/><path class="cls-1" d="M16,61.7c17.22-9.51,36.24-16.35,55.21-21.37,3.73-1,2.14-6.78-1.6-5.79-19.44,5.14-39,12.23-56.64,22-3.38,1.87-.36,7,3,5.18Z"/><path class="cls-1" d="M137.46,121.13c-19-12-21.84-39.21-4.92-54.4s43.36-9,53.39,10.84c1.74,3.45,6.92.41,5.18-3-11.85-23.4-43.17-29.75-62.82-12.05-19.84,17.88-15.93,49.78,6.14,63.82,3.27,2.08,6.28-3.11,3-5.18Z"/><path class="cls-1" d="M189.17,92.11c-.36,19.59-16.3,34.41-35.75,34-3.86-.09-3.86,5.91,0,6a40.53,40.53,0,0,0,41.75-39.95c.07-3.87-5.93-3.87-6,0Z"/><path class="cls-1" d="M42.9,94.86c18.09-7.66,39.48,2,45,21,5,17.3-3.34,36.23-21.49,40.3-3.76.85-2.17,6.63,1.6,5.79,21.7-4.87,32-28.42,25.29-48.94C85.92,90.73,61.08,80.7,39.87,89.68c-3.55,1.5-.49,6.67,3,5.18Z"/><path class="cls-1" d="M49,42.11A33.76,33.76,0,0,1,22.63,70.48c-3.77.85-2.18,6.64,1.59,5.79A39.53,39.53,0,0,0,54.74,43.71c.58-3.78-5.2-5.41-5.78-1.6Z"/><path class="cls-1" d="M154.17,162.11a35.68,35.68,0,0,1,21.47,7.59c3.07,2.34,6.06-2.86,3-5.18a41.14,41.14,0,0,0-24.5-8.41c-3.86-.08-3.86,5.92,0,6Z"/><path class="cls-1" d="M144.48,228.7a34.41,34.41,0,0,1-24.14-29c-1.46-14.39,6.31-27.61,19-34.17,3.43-1.77.39-7-3-5.18a40,40,0,0,0,6.57,74.18c3.69,1.16,5.27-4.63,1.6-5.79Z"/></g></g></svg>