<svg xmlns="http://www.w3.org/2000/svg" viewBox="0 0 277.57 253.49"><defs><style>.cls-1{fill:#1a3263;}</style></defs><title>Fichier 9</title><g id="Calque_2" data-name="Calque 2"><g id="Calque_2-2" data-name="Calque 2"><path class="cls-1" d="M75.67,237.88c-6.15,4.87-3.17,14.88,4.72,15.4,2.6.17,5.28,0,7.88,0h38.46c9.67,0,19.47.47,29.13,0,5.84-.28,9.83-5.29,8.22-11.12s-7-5.88-11.75-5.88h-36c-3.86,0-3.87,6,0,6h24.87c4.4,0,8.86-.22,13.25,0,1.63.08,2.78-.33,3.58,1.55,1.1,2.56-.8,3.24-2.63,3.45-7.46.85-15.51,0-23,0H84.86a32.52,32.52,0,0,1-3.56,0c-2.74-.31-4.25-2.89-1.38-5.16s-1.25-6.61-4.25-4.24Z"/><path class="cls-1" d="M13.94,190.52a88.16,88.16,0,0,0,14.58,20.59c2.64,2.84,6.87-1.41,4.25-4.24a82.67,82.67,0,0,1-13.65-19.38c-1.73-3.46-6.9-.42-5.18,3Z"/><path class="cls-1" d="M118.37,242.28l33.27,1c2.84.09,6.27.72,9.06,0,3.13-.77,6.39-2.84,9.22-4.29,13.41-6.85,26.18-15.56,36.76-26.32A85.8,85.8,0,0,0,222.55,191c4.9-9.87,7.74-21,10.29-31.67,2.32-9.73,5.51-21.76,3.42-31.88a3,3,0,0,0-2.89-2.2H3.37a3,3,0,0,0-2.89,2.2c-.82,4-.42,8.25,0,12.21,1.35,13.72,5.09,27.14,9.31,40.22,1.18,3.66,7,2.09,5.78-1.6-4-12.53-7.79-25.46-9.09-38.62a59.33,59.33,0,0,1-.35-8.43c.05-1.23.16-2.19.16-2.18l-2.89,2.2h230l-2.89-2.2c.15.74.16-.48.07.59-.13,1.41.13,3,.1,4.39a101.37,101.37,0,0,1-2.43,18.51c-4.05,19.37-9.65,38.35-23.24,53.22-10.19,11.14-22.79,20-36.1,27-3.19,1.69-6.53,3.07-9.74,4.71-.59.3.68.07,0,0-1.84-.19-3.74-.11-5.59-.17l-35.2-1.06c-3.86-.11-3.86,5.89,0,6Z"/><path class="cls-1" d="M34.09,216.6A151.2,151.2,0,0,0,64.82,238c4.64,2.46,9.45,5.63,14.8,5.47,3.86-.12,3.87-6.12,0-6-2.39.07-1.41.36-3.69-.67-3.09-1.4-6.13-2.92-9.12-4.53a144.93,144.93,0,0,1-28.48-19.89c-2.86-2.59-7.11,1.64-4.24,4.24Z"/><path class="cls-1" d="M69.62,159.71H230.56c3.86,0,3.87-6,0-6H69.62c-3.86,0-3.87,6,0,6Z"/><path class="cls-1" d="M46.37,159.71h11.5c3.86,0,3.87-6,0-6H46.37c-3.86,0-3.87,6,0,6Z"/><path class="cls-1" d="M48.37,159.71c3.86,0,3.87-6,0-6s-3.87,6,0,6Z"/><path class="cls-1" d="M34.62,159.71c3.86,0,3.87-6,0-6s-3.87,6,0,6Z"/><path class="cls-1" d="M6.36,159.71H34.62c3.86,0,3.87-6,0-6H6.36c-3.86,0-3.87,6,0,6Z"/><path class="cls-1" d="M10.52,175.31h216.6c3.86,0,3.87-6,0-6H10.52c-3.86,0-3.87,6,0,6Z"/><path class="cls-1" d="M79.25,81.28c9.08,6.19,17.37,14,22.44,23.87,3.67,7.15,4.7,15.19,4.93,23.13.11,3.85,6.11,3.87,6,0-.26-9-1.59-18-5.75-26.16-5.54-10.79-14.68-19.27-24.59-26-3.2-2.19-6.2,3-3,5.18Z"/><path class="cls-1" d="M44.34,67.57A84.49,84.49,0,0,1,73.85,77.93c3.38,1.89,6.4-3.29,3-5.18a89.14,89.14,0,0,0-30.95-11c-3.78-.54-5.41,5.24-1.59,5.79Z"/><path class="cls-1" d="M27.63,125.69c.89.47.7,1,.29,0a14.63,14.63,0,0,0-1-1.68c-1-1.72-2-3.5-2.87-5.3a93.48,93.48,0,0,1-6.77-17.31c-1.7-6.16-2.87-12.93-1.48-19.27,2-8.87,9.08-13.55,17.85-14.72,3.77-.5,3.82-6.5,0-6C24.06,62.73,15.3,66.94,11.39,76.2c-3,7.15-2.51,15.26-1,22.7a93.85,93.85,0,0,0,7.84,21.78c1.34,2.74,3.35,8.64,6.32,10.19,3.42,1.78,6.46-3.39,3-5.18Z"/><path class="cls-1" d="M45.17,125.15C41.5,110,52.76,97.28,67.87,97.28c14.81,0,26.15,12.36,22.84,27.32-.83,3.76,5,5.37,5.79,1.59,4.13-18.68-9.8-34.91-28.63-34.91-19.06,0-33.06,16.63-28.49,35.47.91,3.75,6.7,2.16,5.79-1.6Z"/><path class="cls-1" d="M126.94,127.07c.18-.48-.27.54.11-.25s.67-1.37,1-2a30.25,30.25,0,0,1,4.43-6c5.92-6.27,14-9.24,22.58-9.13,11.65.15,27.81,5.9,31.55,17.47,1.18,3.66,7,2.09,5.78-1.59-4.83-15-23.11-21.69-37.33-21.88-14.38-.2-28.75,8.08-34,21.88-1.37,3.61,4.43,5.18,5.78,1.59Z"/><path class="cls-1" d="M138.84,127.79a18.69,18.69,0,0,1,15.6-8.35A24.87,24.87,0,0,1,168,123.81a24.6,24.6,0,0,1,3.53,3c.29.3,1.32,1.56.9,1,2.24,3.1,7.45.11,5.18-3-10.3-14.24-34.27-15.42-44,0-2.06,3.28,3.13,6.29,5.18,3Z"/><path class="cls-1" d="M144.81,106.43c-10.38-12.94-29.32-15.84-44.61-12.8-3.79.75-2.19,6.53,1.59,5.78,13.37-2.65,29.74,0,38.78,11.26,2.42,3,6.64-1.26,4.24-4.24Z"/><path class="cls-1" d="M105.62,109.56c8.55-.7,18.46,1,24.8,7.11,2.78,2.68,7-1.56,4.24-4.24-7.46-7.2-18.9-9.7-29-8.87-3.82.32-3.86,6.32,0,6Z"/><path class="cls-1" d="M127.52,119.81c-5.68-3.23-12.73-5.91-19.34-5.22-3.8.41-3.84,6.41,0,6,5.63-.59,11.47,1.65,16.32,4.41,3.36,1.91,6.38-3.27,3-5.19Z"/><path class="cls-1" d="M202.61,125.48c-3.67-9.84-10-19.83-18.71-25.85C170.07,90.1,147,90.45,132.8,99c-3.3,2-.29,7.18,3,5.18,12.67-7.63,34.28-7.86,46.18,1.5,6.68,5.26,11.84,13.46,14.82,21.41,1.34,3.58,7.14,2,5.78-1.59Z"/><path class="cls-1" d="M124,98.58c27-24,75-4.68,84.12,28.49,1,3.72,6.82,2.14,5.79-1.59-10.36-37.61-63.78-58.21-94.15-31.14-2.89,2.57,1.37,6.8,4.24,4.24Z"/><path class="cls-1" d="M110.09,97.36s-.37.42.26-.31,1.32-1.51,2-2.24a49.65,49.65,0,0,1,7.39-6.26,58.42,58.42,0,0,1,31.57-10.13c25.61-.75,50.32,11.66,62.6,34.44a53,53,0,0,1,5.55,14.21c.77,3.78,6.56,2.18,5.78-1.59-9.16-44.62-67.85-66.94-105.69-43.95-5.47,3.33-10.86,7.57-14.66,12.81-2.27,3.13,2.94,6.12,5.18,3Z"/><path class="cls-1" d="M185.52,82.65l34.42-63.84c1.35-2.5,2.56-6.18,4.48-8.3,3-3.31,5,.14,4.07,3A26.67,26.67,0,0,1,226,17.82L205.36,53.71,188.27,83.44c-1.93,3.35,3.25,6.38,5.18,3l38.6-67.14c2.38-4.14,4.87-8.67,1.19-13.12C228.7.72,221.62,3.31,218.58,8.7c-6.72,11.92-13,24.11-19.5,36.16L180.34,79.62c-1.83,3.4,3.35,6.43,5.18,3Z"/><path class="cls-1" d="M206.4,96.09l54.34-79.36,4.8-7c.57-.83,1.23-2.38,2.06-3,3.93-3,3.8,2.16,2.46,4.39-1.21,2-2.74,3.93-4.09,5.88l-32.2,46.21-25.94,37.24c-2.21,3.17,3,6.17,5.18,3l58.62-84.14c2.76-4,7.31-8.58,5.55-13.82a8.32,8.32,0,0,0-13.84-2.93,25.21,25.21,0,0,0-2.56,3.51L229.86,51.24,201.22,93.06c-2.18,3.2,3,6.2,5.18,3Z"/></g></g></svg>