<svg xmlns="http://www.w3.org/2000/svg" viewBox="0 0 218.07 211.36"><defs><style>.cls-1{fill:#1a3263;}.cls-2{fill:none;stroke:#1a3263;stroke-miterlimit:10;stroke-width:2px;}</style></defs><title>Fichier 4</title><g id="Calque_2" data-name="Calque 2"><g id="Calque_2-2" data-name="Calque 2"><path class="cls-1" d="M159.4,211.21c3.86,0,3.87-6,0-6s-3.86,6,0,6Z"/><path class="cls-1" d="M159.4,211.21c11.07,0,24.17,2,31.17-8.75,3.91-6,3.08-13.32,3.08-20.13V92.64l-3,3c2.95,0,6.66-2.89,8.76-4.68a26,26,0,0,0,8.07-13.18A37.9,37.9,0,0,0,205.83,54c-6.86-16.77-24.07-26.17-40.6-31.16S131,16.39,113.65,16.22l3,3h0a3,3,0,0,0-3-3h-2a3,3,0,0,0-3,3h0l3-3c-25.18.25-54.07,2.65-75.36,17.66C24.68,42.06,16.38,54.49,16.67,69.05c.13,6.81,1.94,13.66,6.34,19,2.19,2.64,6.86,7.23,10.64,7.23l-3-3v90.65c0,3.91-.31,8,.24,11.89,1.4,9.95,10,16.27,19.72,16.41,14.85.2,29.71,0,44.56,0h45.36c3.86,0,3.86-6,0-6H55.05c-6.56,0-13.13-.18-16.82-6.9-2.23-4.08-1.58-9.44-1.58-13.94V92.26a3,3,0,0,0-3-3c1.41,0,.68.22-.18-.38-.59-.42-1.29-.71-1.89-1.11a18.5,18.5,0,0,1-4.78-4.6c-3.31-4.61-4.32-10.53-4.13-16.1A32,32,0,0,1,27,52.22c8-13.85,24-20.89,38.82-24.77,14.94-3.91,30.45-5.07,45.84-5.23a3,3,0,0,0,3-3h0l-3,3h2l-3-3h0a3.06,3.06,0,0,0,3,3c23.11.23,48.75,2.28,69,14.64,10.41,6.36,19.09,16.44,20,29.06.39,5.79-.5,12-3.84,16.91a18.53,18.53,0,0,1-4.57,4.65,21,21,0,0,1-2.46,1.46c-.27.15-1.84.7-1.06.7a3,3,0,0,0-3,3v47.22c0,17.24.67,34.63,0,51.86-.3,7.77-5.73,13.18-13.49,13.49-4.9.19-9.85,0-14.76,0-3.86,0-3.86,6,0,6Z"/><line class="cls-2" x1="152.65" y1="140.21" x2="152.65" y2="146.21"/><path class="cls-2" d="M146.65,171.21c1,0,7,2,7,2"/><line class="cls-2" x1="151.65" y1="98.21" x2="161.65" y2="98.21"/><line class="cls-2" x1="138.65" y1="62.21" x2="146.65" y2="64.21"/><line class="cls-2" x1="118.65" y1="83.21" x2="115.65" y2="90.21"/><line class="cls-2" x1="81.65" y1="50.21" x2="81.65" y2="55.21"/><line class="cls-2" x1="99.65" y1="157.21" x2="108.65" y2="157.21"/><line class="cls-2" x1="65.65" y1="140.21" x2="69.65" y2="140.21"/><line class="cls-2" x1="87.65" y1="108.21" x2="87.65" y2="116.21"/><line class="cls-2" x1="54.65" y1="64.21" x2="49.65" y2="64.21"/><line class="cls-2" x1="74.65" y1="176.21" x2="74.65" y2="169.21"/><path class="cls-1" d="M15,110.22c2.85-5.54,6.47-13.6,11.8-17.28,1.34-.92.31-.76,1-.19,1,.79,1.57,2.61,2,3.76a33.32,33.32,0,0,1,1.62,7.6,84.46,84.46,0,0,1,.15,10.19l-.7,47.55-.21,14.36,3.8-2.89A52.18,52.18,0,0,1,16.76,164c-4.43-3.59-8.26-8.14-10-13.64-2.6-8.19-.3-17.26,2.12-25.2,1.13-3.7-4.66-5.28-5.78-1.59-4.85,15.85-5.2,31.62,7.9,43.37A57.87,57.87,0,0,0,32.86,179.1a3,3,0,0,0,3.79-2.89l.65-43.78c.18-12.32,2.75-28.77-2.87-40.31-8-16.49-21,7.93-24.63,15.07-1.77,3.43,3.41,6.47,5.18,3Z"/><path class="cls-1" d="M31.86,147.32l-.46.11,3.39,1.37c-1.23-1.77-3-1.49-4.88-1.59-4.35-.24-8.14-2.76-9.09-7.23-1.72-8.13,4.51-13.85,12.45-12.63,3.77.58,5.4-5.2,1.59-5.79C24.63,120,15,125.29,14.65,136.47c-.15,4.81,1.25,9.42,4.85,12.76,3.78,3.49,7.91,3.51,12.66,4l-2.59-1.48,0,.05A3.1,3.1,0,0,0,33,153.21l.46-.11c3.75-.91,2.16-6.7-1.59-5.78Z"/><path class="cls-1" d="M44.62,35.26C51,24.07,61.22,10.88,74,7.07,84.15,4,95.92,8.5,105,13a97.31,97.31,0,0,1,15.14,9l1.51-5.59c-11.24.18-22.51,1-33.68,2.26-15.57,1.76-34.1,3.52-47.46,12.51-3.19,2.14-.19,7.34,3,5.18C56.56,27.58,75.05,26,90.23,24.4c10.42-1.1,20.94-1.84,31.42-2,3.19-.05,3.8-3.89,1.52-5.59C109.93,7,89.22-3.75,72.4,1.28c-14.34,4.29-25.82,18.36-33,31C37.53,35.6,42.71,38.63,44.62,35.26Z"/><path class="cls-1" d="M190.86,140.1c10.64,2.71,26.15,1.35,27.15-12.41,1.1-15.23-11.44-31-26.56-33.37-1.85-.3-3.85.76-3.8,2.89l1,40c.1,3.85,6.1,3.87,6,0l-1-40-3.79,2.89C202,102,211.62,113.51,212,125.67c.38,10.69-11.95,10.59-19.59,8.65C188.71,133.36,187.11,139.15,190.86,140.1Z"/><path class="cls-1" d="M188.65,136.21l-1,50a3,3,0,0,0,3.8,2.89c10-3.41,20.64-11,23.52-21.69,2.39-8.86-.47-29-11.52-32.09-3.73-1-5.32,4.76-1.59,5.78a3.81,3.81,0,0,1,1,.61,12.91,12.91,0,0,1,3.2,4.13c3.32,6.23,5.19,15.41,2.38,22.11-3.11,7.41-11.16,12.84-18.59,15.37l3.79,2.89,1-50c.08-3.86-5.92-3.86-6,0Z"/></g></g></svg>