<svg xmlns="http://www.w3.org/2000/svg" viewBox="0 0 291.91 184.03"><defs><style>.cls-1{fill:#1a3263;}</style></defs><title>Fichier 21</title><g id="Calque_2" data-name="Calque 2"><g id="Calque_2-2" data-name="Calque 2"><path class="cls-1" d="M243.44,129H9.88c-3.64,0-7.48.24-9.19,4.2-1,2.28-.62,5.1-.62,7.52,0,3.4-.16,6.84,0,10.23C.39,158,5.3,159,11.19,159H29.07l-3-3c0,6.68-.31,13.44,0,20.11.4,8.85,8.43,7.87,15,7.87s14.6,1,15-7.87c.3-6.67,0-13.43,0-20.11l-3,3h144.5l-3-3c0,6.68-.31,13.44,0,20.11.4,8.85,8.43,7.87,15,7.87s14.6,1,15-7.87c.3-6.67,0-13.43,0-20.11l-3,3h14.36c4.28,0,10.22,1.06,13.2-2.81,2.73-3.54,1.44-10.46,1.44-14.58,0-5.27.44-11.47-6.33-12.52-3.78-.59-5.4,5.19-1.59,5.78,3.35.52,1.92,8.22,1.92,10.56,0,2.93,1.16,7-2.25,7.57-3.64.65-8.1,0-11.79,0h-9a3,3,0,0,0-3,3v15.71c0,1.85.81,5.29-1.21,6.27-1.72.84-5.9,0-7.79,0s-5.88.79-7.68,0c-2.11-.92-1.32-3.91-1.32-5.84V156a3,3,0,0,0-3-3H53.07a3,3,0,0,0-3,3v15.71c0,1.85.81,5.29-1.21,6.27-1.72.84-5.9,0-7.79,0s-5.88.79-7.68,0c-2.11-.92-1.32-3.91-1.32-5.84V156a3,3,0,0,0-3-3H14.7c-2,0-5,.56-7,0-2.28-.65-1.63-2.86-1.63-4.85,0-2.66-1.56-12,1.31-13.17,1.51-.63,4.66,0,6.26,0h229.8C247.3,135,247.31,129,243.44,129Z"/><path class="cls-1" d="M61.15,152H43.57c-3.86,0-3.87,6,0,6H61.15c3.86,0,3.87-6,0-6Z"/><path class="cls-1" d="M229.9,152H214.57c-3.86,0-3.87,6,0,6H229.9c3.86,0,3.87-6,0-6Z"/><path class="cls-1" d="M8.57,120a13.66,13.66,0,0,0,6,12.46C18.9,135.27,24.1,135,29.09,135H48.35c8.27,0,18.84,1.68,26-3.44,7.82-5.57,5.22-17.22,5.22-25.56a3,3,0,0,0-3-3h-50c-3.86,0-3.87,6,0,6h50l-3-3v8.24c0,4.83,1.22,10.37-3.75,13.08-5.9,3.22-15,1.68-21.47,1.68H34c-4.4,0-9.68.74-13.93-.56A7.74,7.74,0,0,1,14.57,120c.37-3.84-5.63-3.82-6,0Z"/><path class="cls-1" d="M14.08,104.41l-8-6,1.08,4.1C22.77,79.46,65.5,81.2,81,103.51l1.07-4.1-7,4c-3.35,1.92-.33,7.1,3,5.18l7-4a3,3,0,0,0,1.08-4.1C67.94,74.22,20.36,72.33,2,99.49c-1,1.45-.15,3.18,1.07,4.1l8,6c3.09,2.32,6.09-2.89,3-5.18Z"/><path class="cls-1" d="M94.9,135c5.84-.18,12.87-2.14,15.63-7.82,2.6-5.33,1-13.36,1-19.18l-1.49,2.59,8-6c1.18-.88,2.15-2.7,1.08-4.1-7.43-9.8-18.74-18.15-30.88-20.67-8.21-1.7-17.73-1.18-25.95.45-2.09.41-5.56,1.06-6.66,3.24-1.74,3.44,3.43,6.48,5.18,3-.41.8-.85.43-.2.4,1.09-.07,3.07-.87,4.43-1.09,7.73-1.24,16.64-1.73,24.22.4a46.51,46.51,0,0,1,17.86,10.24,63,63,0,0,1,5.07,5c.45.5,2.28,2.72,1.75,2l1.07-4.1c-3,2.29-9.09,5-9.48,9.14s.13,8.51,0,12.7c-.19,5.88-5.45,7.59-10.67,7.75-3.85.12-3.87,6.12,0,6Z"/><path class="cls-1" d="M140,122.49c-3.22,5.26-7.74,3.73-10.55-.95-2.92-4.87-3.88-10.94-3.86-16.54s1.26-11.37,4.35-16c1.19-1.79,2.94-4,5.11-4.66,3.25-.94,4.58,2.18,5.95,4.59,1.91,3.36,7.1.34,5.18-3-3.83-6.72-9.69-10.61-16.72-5.2S119.62,96.4,119.57,105c0,8.14,1.85,18.44,8.32,24.07,6,5.27,13.4,2.78,17.27-3.56,2-3.3-3.17-6.32-5.18-3Z"/><path class="cls-1" d="M181.57,105c-.1,5.17-1.48,21-9.5,21s-9.5-15.71-9.5-21c0-5.58,1.38-20,9-20.93,8.32-1,9.9,15.93,10,20.93.07,3.86,6.07,3.87,6,0-.17-9.07-3.18-26.95-15.5-27s-15.5,18-15.5,27,3.29,27,15.5,27,15.33-18,15.5-27C187.64,101.14,181.64,101.14,181.57,105Z"/><path class="cls-1" d="M168.57,126c-5.23,0-10.64.43-15.85,0-9.93-.82-10.65-18-9.95-25.22.49-5,1.89-11.83,6-15.26,2-1.71,3.91-1.52,6.38-1.52h16.51c3.86,0,3.86-6,0-6-6.41,0-12.93-.36-19.32,0-10.93.62-14.71,13.75-15.55,22.78-.9,9.65,1,27.18,12.3,30.73,5.84,1.83,13.45.49,19.5.49,3.86,0,3.87-6,0-6Z"/><path class="cls-1" d="M108.88,92.44A19.89,19.89,0,0,1,112,86.16c2.38-3,5.33-2.16,8.87-2.16h15.73c3.86,0,3.87-6,0-6H116c-7.19,0-11,6.53-13,12.85-1.14,3.69,4.65,5.27,5.79,1.59Z"/><path class="cls-1" d="M135.57,129H123.94a33.3,33.3,0,0,1-4.79,0c-4-.6-6-4.54-7.42-8s-7.21-2-5.78,1.59c2.62,6.61,6.62,12.27,14.25,12.41,5.12.09,10.25,0,15.37,0,3.86,0,3.87-6,0-6Z"/><path class="cls-1" d="M177.35,127.73C203.4,144,237,125.5,237.57,95c.07-3.86-5.93-3.86-6,0-.49,26.09-29.08,41.35-51.19,27.55-3.28-2.06-6.3,3.13-3,5.18Z"/><path class="cls-1" d="M184.57,98.5h50a1.5,1.5,0,0,0,0-3h-50a1.5,1.5,0,0,0,0,3Z"/><path class="cls-1" d="M221.57,168.33h67a3,3,0,0,0,3-3V154c0-14.25,1.11-29-.67-43.12-1.37-11-5.81-20.06-11.22-29.52-7-12.25-8.86-24.66-8.95-38.72A177.2,177.2,0,0,1,274.46,3.8,3,3,0,0,0,271.57,0h-49a3,3,0,0,0-2.89,3.8c3.79,13.74,7.31,29,6.14,43.31-.78,9.46-5.65,19.08-8.91,27.89q-3.56,9.63-7.23,19.2c-1.39,3.61,4.41,5.17,5.78,1.6q3.81-9.9,7.47-19.84c3.41-9.24,8.11-18.92,8.89-28.85C233,32.3,229.39,16.43,225.46,2.2L222.57,6h49l-2.89-3.8a182.45,182.45,0,0,0-3.74,30.53c-.69,14.65-.55,30.29,5.53,43.91C274.63,86,280.92,94,283.53,104c3.81,14.61,2,30.74,2,45.72v15.65l3-3h-67c-3.86,0-3.87,6,0,6Z"/><path class="cls-1" d="M227.07,26.61h41.5c3.86,0,3.87-6,0-6h-41.5c-3.86,0-3.87,6,0,6Z"/><path class="cls-1" d="M254.57,5a7,7,0,0,1-14,0"/></g></g></svg>