<svg xmlns="http://www.w3.org/2000/svg" viewBox="0 0 290.97 192.93"><defs><style>.cls-1{fill:#1a3263;}</style></defs><title>Fichier 18</title><g id="Calque_2" data-name="Calque 2"><g id="Calque_2-2" data-name="Calque 2"><path class="cls-1" d="M162.22,164.93c26,0,52,.09,78,0,19.81-.06,37.51-15.84,35.18-36.62-2-17.68-8.32-35.9-16.69-51.51-9.59-17.91-23.64-33.43-41.58-43.22C195.72,21.88,170.1,18.68,146,21.24c-36.91,3.93-67.73,25-85.2,57.66a140.45,140.45,0,0,0-13.51,37,100.08,100.08,0,0,0-2,13.34c-.58,7.72,0,14.82-5.49,21.26a24.24,24.24,0,0,1-15.62,8.46c-3.75.42-4,6,0,6h138c3.86,0,3.87-6,0-6h-138v6a30.35,30.35,0,0,0,24.56-17.56c2.61-5.91,2.09-11.77,2.53-18,.7-9.72,3.29-19.44,6.48-28.62,10.43-30,31.68-56.25,62.05-67.45C161.29,18,213.05,26.8,241.69,61.83c11.77,14.4,19.39,31.89,24.14,49.76,2.39,9,5.48,19.21,2.48,28.38-3.72,11.41-14.76,18.75-26.55,19-25.63.46-51.31,0-76.94,0h-2.6C158.36,158.93,158.35,164.93,162.22,164.93Z"/><path class="cls-1" d="M49.77,127.6c-11.56-8.14-34.5-11.06-45,.3-6.09,6.61-5.84,17.37-2.1,25.08,3.64,7.53,11.14,11.29,19.17,12.2A46.32,46.32,0,0,0,39,163.83c3.71-1,2.13-6.82-1.6-5.79-13.52,3.74-30.89.69-31.37-16.36-.56-20.18,29.6-16.71,40.7-8.9,3.16,2.22,6.16-3,3-5.18Z"/><path class="cls-1" d="M29,83.34A105.59,105.59,0,0,1,59.73,53.52c3.23-2.09.23-7.29-3-5.18a113.18,113.18,0,0,0-32.84,32c-2.15,3.22,3.05,6.23,5.18,3Z"/><path class="cls-1" d="M14.06,126.79c.11-12.21,4.74-24.79,10.26-35.47,1.77-3.42-3.41-6.46-5.18-3-6,11.65-11,25.2-11.08,38.5,0,3.86,6,3.87,6,0Z"/><path class="cls-1" d="M226.22,163.93c0,3.78-.65,8.27.58,11.91a10.57,10.57,0,0,0,12.69,6.69c5.66-1.56,7.65-6.52,7.73-11.87,0-2.19-.32-3.63,1.88-4.8s4.94-.81,5.12,2.07c.24,3.84,6.24,3.87,6,0-.6-9.66-13.93-11.94-18.18-3.27-1.83,3.73,1.22,12.27-5.32,12.27-6.07,0-4.5-9.14-4.5-13s-6-3.86-6,0Z"/><path class="cls-1" d="M159.56,9.18c-5.16,6-12.79,14.32-21.75,12.06C133,20,130.06,14.9,126.45,11.83c-9.5-8.11-27.21-6.22-30,7.45-1.32,6.41.39,13.87-2.54,19.89-4.34,8.91-18.2,6.1-26.12,6.74S50,49.73,47.25,58c-2.28,6.76.8,14.11,3,20.48,3.33,9.65,5.6,19.48-3.33,27-7.07,5.94-15.43,8.31-20,17-1.79,3.41,3.39,6.45,5.18,3,4.1-7.81,12.18-10.09,18.61-15.43a23.24,23.24,0,0,0,8.63-20.22c-.78-8-4.81-15.18-6.42-23-2.3-11.15,8.31-14.79,17.74-15,8.46-.25,18.13.74,25-5.27,5-4.38,5.64-11.2,5.91-17.44.32-7.38.23-14.39,9-15.81,6.83-1.1,11,1.92,15.44,6.6,4.22,4.44,8.69,8,15.17,7.6,9.76-.62,16.58-7.06,22.6-14,2.51-2.91-1.71-7.17-4.24-4.25Z"/><path class="cls-1" d="M265.85,74.2c-6-2-10.44-3.28-11.41-9.82-.73-4.9-.46-10-.47-14.9,0-7.17.72-18.59-6.24-23.14-8.61-5.62-21.14.92-30,2.54-5.2.95-11,1.24-14.88-2.89-2.92-3.11-4.65-7.34-6.56-11.09C191.72,6,185.85-1.23,174.9.18c-3.78.48-3.83,6.49,0,6,10.54-1.35,13.84,7.27,18,15.26s9,13.75,18.44,14C217,35.62,222.56,34,228,32.58c4.45-1.18,12-4.13,16.31-1.3,3.19,2.08,3.3,7.42,3.51,10.82.32,5.14.1,10.29.21,15.44.09,4.38.16,9.23,2,13.29,2.51,5.56,8.9,7.38,14.26,9.16,3.67,1.22,5.24-4.57,1.59-5.79Z"/><path class="cls-1" d="M275.22,136.6c0-3.75-.53-7.94.83-11.51,2-5.4,6.67-9.53,9.86-14.23,7.25-10.71,7.49-23.56-4.45-30.63-3.33-2-6.36,3.21-3,5.18,13.42,8,3.42,20.9-3.23,29.66-2.7,3.55-5.11,7.33-5.77,11.82a68.39,68.39,0,0,0-.21,9.71c0,3.86,6,3.87,6,0Z"/><path class="cls-1" d="M254.22,157.68v19.73c0,7.07,1.34,15.52,10.5,15.52,8.13,0,10.5-7.22,10.5-13.9V136.6c0-3.86-6-3.87-6,0v42.16c0,2.63.51,6-2.24,7.56-5.61,3.28-6.76-3.67-6.76-7.39V157.68c0-3.86-6-3.87-6,0Z"/><path class="cls-1" d="M55.72,54.27a38.94,38.94,0,0,1,2.67-10.85c2.42-5.87,5.74-7.82,11.88-7.29,8.79.75,17.69,3.71,25.92,6.79,3.62,1.36,5.18-4.44,1.6-5.78C88,33.47,76.29,29.19,65.7,30.07c-11.38,1-15.05,14.65-16,24.2-.38,3.84,5.63,3.81,6,0Z"/><path class="cls-1" d="M97,15.32C85.74,14.53,75.39,21.83,70.88,32c-1.54,3.5,3.62,6.55,5.19,3C79.77,26.67,87.64,20.66,97,21.32c3.85.28,3.83-5.72,0-6Z"/><path class="cls-1" d="M37.34,118.06c1.91-1.71.93-4.66.39-6.75-1-3.89-2.43-7.79-2.63-11.84-.49-10.33,15.28-8.07,21.67-12.53,3.15-2.2.15-7.4-3-5.18-7.12,5-20.21,2-23.9,11.81-1.37,3.63-.71,7.82.05,11.51.43,2.06,1,4.08,1.57,6.1a16.85,16.85,0,0,0,.77,2.85c.79,1.57-.75,1.23.87-.22-2.89,2.58,1.37,6.81,4.24,4.25Z"/><path class="cls-1" d="M18.81,140.42c-.28-.45-.5-.93-.74-1.4-.33-.62.16.57,0,0-.07-.25-.18-.49-.25-.75s-.12-.53-.2-.78c-.19-.55,0,.7,0-.15,0-.5.12-.64-.05,0l.09-.36c.09-.34-.35.66-.1.24.37-.63-.22.55.11-.1-.06.12-.52.49-.11.13.19-.16-.65.17-.09,0l.53-.13c.39-.11-.73,0,.07,0a13,13,0,0,1,1.53,0,20.87,20.87,0,0,1,3.85.74c3.74,1,5.34-4.82,1.6-5.79-4.5-1.17-12.46-2.27-13.34,4.19a11.24,11.24,0,0,0,2,7.22c2.06,3.25,7.25.25,5.18-3Z"/><path class="cls-1" d="M20.22,151.93c3.86,0,3.87-6,0-6s-3.87,6,0,6Z"/></g></g></svg>