<svg xmlns="http://www.w3.org/2000/svg" viewBox="0 0 266.67 224.46"><defs><style>.cls-1{fill:#61b570;}.cls-2{fill:#44934f;}.cls-3{fill:#6be880;}.cls-4{fill:#4ddb68;}.cls-5{fill:#1a3263;}.cls-6{fill:#fff;}</style></defs><title>Fichier 20</title><g id="Calque_2" data-name="Calque 2"><g id="Calque_3" data-name="Calque 3"><path class="cls-1" d="M85.82,136.37s-7,18,9,18c5,0,12-6,12-6s26,12,48,6a93.89,93.89,0,0,0,36-19s10,11,18,0-5-15-5-15,31-49-6-90c10-4,9-23-8-15,2-18-15-18-20-6,0,0-19-9-34-7s-35,5-53,26c-10-3-29,3-15,23-11,19-5,57,7,70C62.82,131.37,78.82,144.37,85.82,136.37Z"/><path class="cls-2" d="M178.22,146.37c27.41,19,56.6,2,56.6,2s7,5,13,2,0-14,0-14,12-16,15-28-7-36-7-36,8-6,8-11-7-15-21-5c-12-13-35.49-10.89-35.49-10.89s13.49,26.89,6.49,50.89-13,25-13,25,16,4,9,13-11,9-18,4A112,112,0,0,0,178.22,146.37Z"/><path class="cls-1" d="M63.26,45.08S18.82,50.37,15.82,98.37c-23,1-10,27,0,22,0,0-9,7-3,12s12,2,13,1c7,23,48,23.19,60,20.1"/><path class="cls-2" d="M28.71,138.37s18.11,2,29.11-6,12.78-15,12.78-15l3.43,5.1s-7.51,9.9-1.86,13.9,10.23,4.91,11.94,3.46-.24,9.54.74,10.54-2,5-2,5-33-1-39-5A191.12,191.12,0,0,1,28.71,138.37Z"/><path class="cls-3" d="M192.82,175.37v17c0,16-24,29-53.5,29s-53.5-13-53.5-29v-19l53-9Z"/><path class="cls-3" d="M95.82,204.37s-28.25-14.61-25.62-22.8,26.62,5.8,26.62,5.8"/><path class="cls-3" d="M189.82,183.37s15-5.63,17-3.31,4.49,4.81-1.75,10.56-22.25,11.75-22.25,11.75Z"/><path class="cls-4" d="M148.82,170.37c25,3.79,31,29,28,41,15-7,15-23,16-31a24.55,24.55,0,0,1,5-12.5l9-12.5-32-7.09s-37,16.09-50,9.09-17.65-7-23.83-3-15,1-17.57-.5-11.6,2.5-11.6,2.5l21,22S115.82,165.37,148.82,170.37Z"/></g><g id="Calque_2-2" data-name="Calque 2"><path class="cls-5" d="M189.82,175.37c0,6.18.8,12.88-.14,19-1.8,11.73-16.37,18-26.29,20.79a89.46,89.46,0,0,1-46.7.4c-10.18-2.7-24.93-8.59-27.55-20.27-1.53-6.86-.32-14.93-.32-21.92,0-3.86-6-3.86-6,0,0,7.32-1,15.37.35,22.6,2.31,12.21,14.91,19.51,25.61,23.41,16,5.85,34.4,6.42,51,2.86,12.34-2.64,27.12-8.44,33.47-20.21,4.2-7.78,2.55-18.15,2.55-26.66,0-3.86-6-3.86-6,0Z"/><path class="cls-5" d="M190.94,181.5l18-23c2.35-3-1.87-7.29-4.24-4.25l-18,23c-2.36,3,1.86,7.29,4.24,4.25Z"/><path class="cls-5" d="M93.94,177.25l-19-23c-2.46-3-6.69,1.29-4.24,4.25l19,23c2.46,3,6.68-1.29,4.24-4.25Z"/><path class="cls-5" d="M193.61,185.77c2.61-1.06,6.88-3.48,9.68-3.28a8.23,8.23,0,0,1,1.55-.26,3.35,3.35,0,0,1,.2,4,7.68,7.68,0,0,1-.93,1.12,36.54,36.54,0,0,1-4,3.81c-4.87,4.39-12,10.07-16.11,13.26-3,2.32,0,7.54,3,5.18,7.47-5.76,16.49-11.62,22.26-19.15,3.23-4.23,3.18-12.51-3.13-14-4.33-1.05-10.26,2-14.18,3.62-3.53,1.44-2,7.24,1.59,5.79Z"/><path class="cls-5" d="M86.18,180c-3.9-1.58-9.46-4.46-13.78-3.67-6.61,1.21-6.84,9.73-3.53,14.1,5.72,7.54,14.8,13.4,22.26,19.15,3.06,2.36,6.05-2.85,3-5.18C90,201.2,82.91,195.5,78.05,191.12c-1.44-1.3-9.23-8.16-3.58-8.72,2.92-.29,7.41,2.27,10.12,3.37,3.57,1.45,5.13-4.35,1.59-5.79Z"/><path class="cls-5" d="M190.94,164.5l7.5-7.5c2.73-2.74-1.51-7-4.24-4.25l-7.5,7.5c-2.74,2.74,1.5,7,4.24,4.25Z"/><path class="cls-5" d="M174.41,168.89l13-17c2.34-3.07-2.87-6.06-5.18-3l-13,17c-2.35,3.07,2.86,6.06,5.18,3Z"/><path class="cls-5" d="M111.94,165.25l-9-11c-2.45-3-6.67,1.28-4.24,4.25l9,11c2.44,3,6.67-1.28,4.24-4.25Z"/><path class="cls-5" d="M182.82,171.37c3.86,0,3.86-6,0-6s-3.87,6,0,6Z"/><path class="cls-5" d="M155.23,154.86l-4,8c-1.73,3.44,3.45,6.49,5.18,3l4-8c1.72-3.44-3.45-6.49-5.18-3Z"/><path class="cls-5" d="M129.41,162.86l-4-8c-1.73-3.45-6.91-.42-5.18,3l4,8c1.72,3.45,6.9.42,5.18-3Z"/><path class="cls-5" d="M97.94,162.25l-10-10c-2.74-2.73-7,1.51-4.24,4.25l10,10c2.73,2.73,7-1.51,4.24-4.25Z"/><path class="cls-5" d="M82.92,137.58c-2,5.33-2.78,12.67,1,17.38,6.83,8.48,18.37,3.12,25-2.46l-3.64.47c14.1,6.43,31.09,9.92,46.44,7.16,14.62-2.63,30.22-10.54,41.2-20.63H188.7c7.36,7.88,18.44,7.32,23.87-2.44,4.25-7.65-.13-15.06-8-17.58l1.8,4.41c6-9.5,9.72-21,11.46-32a73.68,73.68,0,0,0-17.93-61.6L199.33,35c5.86-2.64,9.4-9.81,7.3-16-2.79-8.24-12-7-18.33-4.16l4.52,2.59c.61-7.12-1.55-15.54-9.58-17.14-6.93-1.38-13.28,3.62-16,9.63l4.1-1.08C157.88,2.48,143.84,0,129.17,2.31,110,5.31,93.57,13.56,80.7,28.25l2.91-.77c-6.46-1.76-14.67-.87-19.71,3.92-7.1,6.74-3.35,16.54,1.33,23.49v-3c-6.55,11.8-7.1,26.33-5.45,39.44,1.5,11.9,4.76,25,12.92,34.2v-4.25c-5.53,5-7.21,12.76-1.62,18.49,4.63,4.75,12,5.63,16.86.76,2.72-2.75-1.52-7-4.24-4.25-2.51,2.53-6.08,1.7-8.38-.75-3.24-3.46-1.48-7.19,1.62-10a3.07,3.07,0,0,0,0-4.25C69.64,113,66.83,100.57,65.62,90c-1.33-11.61-1-24.61,4.79-35.06a3,3,0,0,0,0-3c-3.14-4.66-7.5-12.35-1.63-16.73,3.64-2.72,9-3,13.24-1.86a3,3,0,0,0,2.92-.77c12-13.68,26.93-21.31,44.72-24.22A64.81,64.81,0,0,1,168.3,14c1.35.63,3.39.5,4.11-1.08,1.61-3.55,4.92-7.43,9.3-6.85,5.31.7,5.46,7.26,5.11,11.33-.22,2.51,2.65,3.42,4.51,2.6,3.21-1.42,9-3.16,9.84,1.82.59,3.52-1.83,6.63-4.87,8-1.87.85-1.75,3.41-.6,4.72a67.65,67.65,0,0,1,15.78,59.12c-1.88,9.39-5.13,19.08-10.25,27.24a3,3,0,0,0,1.79,4.41c4.12,1.32,6.58,4.57,4.37,8.76-3.45,6.54-9.89,6.1-14.45,1.22a3.06,3.06,0,0,0-4.24,0c-9.95,9.15-23.9,16-37,18.79-14,3-30.41-.34-43.37-6.26a3.18,3.18,0,0,0-3.63.47c-4,3.4-14.29,9-17,1.2-1.1-3.17-.15-7.23,1-10.28C90.09,135.56,84.29,134,82.92,137.58Z"/><path class="cls-5" d="M111.92,112.58c-1.63,5-.78,11.53,4.44,14a11.3,11.3,0,0,0,15-5.73c1.55-3.5-3.62-6.56-5.18-3-1.23,2.78-4.35,5.06-7.4,3.31-2.31-1.34-1.82-4.82-1.12-7,1.19-3.68-4.6-5.26-5.79-1.59Z"/><path class="cls-5" d="M153.6,114c3,5.24,9.22,8.33,14.82,5a13.33,13.33,0,0,0,5.34-16.77c-1.52-3.54-6.69-.49-5.18,3-.56-1.3,0,0,.06.39a10.25,10.25,0,0,1,.28,2,7.17,7.17,0,0,1-3.53,6.17c-2.72,1.62-5.23-.44-6.61-2.82-1.93-3.35-7.12-.33-5.18,3Z"/><path class="cls-5" d="M45.54,99c-4.38-.63-8.77,1.33-9.46,6.1s2.23,10.05,7.06,11.38c3.72,1,5.31-4.76,1.59-5.78-.29-.09-.44-.19,0,0a8.53,8.53,0,0,1-1.05-.58A4.46,4.46,0,0,1,42,106.39c.05-1.09.25-1.25,1.1-1.46,0,0,2.44.11.87-.12a3.11,3.11,0,0,0,3.69-2.09c.41-1.41-.49-3.46-2.09-3.69Z"/><path class="cls-5" d="M101.57,62.08c-5.45-1.72-11.92-.06-14,5.73-2.17,6.09.48,13.6,6.54,16.34,3.49,1.57,6.54-3.6,3-5.19a7.26,7.26,0,0,1-4-8.8c.93-3,4.24-3.11,6.85-2.29,3.69,1.17,5.27-4.62,1.59-5.79Z"/><path class="cls-5" d="M162.47,65.77c7.11.56,16.05-2.57,16.29-10.91.23-7.93-8.36-10.68-14.94-10.49l3,3c-.41-5.8-2.6-15.08-10-14.94-9.48.17-13.75,11.21-8.12,18.07,2.45,3,6.67-1.28,4.24-4.25.74.91-.38-.59-.47-.82a4.72,4.72,0,0,1-.54-2.92c.56-2.56,4.25-5.1,6.41-3.29,1.88,1.57,2.32,5.84,2.48,8.15a3,3,0,0,0,3,3c3.12-.09,9.23.4,8.9,4.62-.35,4.55-6.73,5.06-10.25,4.78-3.85-.31-3.83,5.7,0,6Z"/><path class="cls-5" d="M218,116.11c2.12,6.31,7.76,12.51,15,9.85s6.51-11.06,3.84-16.84l-1.08,4.11c4.89-2.61,12-8.29,8.49-14.52-4-7-14.26-6.61-17.94.27-1.81,3.4,3.36,6.44,5.19,3,1.73-3.25,8.63-2.92,7.32,1-.7,2.14-4.19,4-6.09,5a3.07,3.07,0,0,0-1.07,4.1c.91,2,2.69,7.62-1.42,8.36-3.29.59-5.54-3.31-6.44-6-1.22-3.65-7-2.08-5.78,1.59Z"/><circle class="cls-5" cx="91.82" cy="113.37" r="3"/><circle class="cls-5" cx="51.82" cy="68.37" r="3"/><circle class="cls-5" cx="151.82" cy="143.37" r="3"/><circle class="cls-5" cx="194.82" cy="74.37" r="3"/><circle class="cls-5" cx="244.82" cy="74.37" r="3"/><circle class="cls-5" cx="142.82" cy="68.37" r="3"/><circle class="cls-5" cx="108.82" cy="54.37" r="3"/><circle class="cls-5" cx="94.82" cy="104.37" r="2"/><circle class="cls-5" cx="56.82" cy="138.37" r="2"/><circle class="cls-5" cx="185.82" cy="102.37" r="2"/><path class="cls-5" d="M176.71,149a57.62,57.62,0,0,0,59.62,2h-3c5,3.45,14.44,5.58,18.62-.27,3.3-4.61.88-11.36-1.51-15.84v3c7-9.37,15.41-21.51,15.94-33.55.49-11-3.48-22.72-7.64-32.76L257.33,75c5.75-4.4,12-11.15,8.13-18.72-5.1-9.87-16.43-7.67-24.16-2.47l3.64.47c-9.36-9.63-24.53-12.88-37.61-11.77-3.82.33-3.85,6.33,0,6,11.53-1,25.07,1.47,33.37,10a3,3,0,0,0,3.63.47c4.58-3.09,12.82-6.78,15.94.3,1.86,4.22-3.76,8.83-6,10.51-1,.74-1.92,2.09-1.38,3.39,3.84,9.28,7.52,20,7.46,30.07-.07,11.2-8.69,23-15.15,31.62a3,3,0,0,0,0,3c1.1,2.07,2.75,5.46,2.25,7.85-1,4.88-8.43,1.91-11.15,0a3,3,0,0,0-3,0c-16.54,9.52-37.87,8.49-53.56-2-3.22-2.15-6.23,3.05-3,5.19Z"/><path class="cls-5" d="M63.26,41.08a59.57,59.57,0,0,0-24.81,9.51C22.33,61.21,14.18,78.42,12.82,97.37l3-3c-9.53.63-18.11,6.49-15.27,17,2,7.23,9.07,13.94,16.78,10.55l-3.63-4.72c-3.95,3.16-7.76,8.86-4.95,13.91,3.59,6.46,13.66,7.84,19.19,3.34l-5-1.33c4.22,12.79,16.78,19,29.16,21.7,11,2.39,23.5,3.2,34.53.49,3.75-.92,2.17-6.71-1.59-5.79-9.29,2.28-19.9,1.68-29.21,0-10.77-2-23.34-6.55-27.1-17.94a3,3,0,0,0-5-1.33c-3,2.47-11.19,0-9.51-4.42.64-1.69,2.37-3.23,3.75-4.33,2.88-2.31-.8-6-3.64-4.72-3.76,1.66-7.22-4.11-8-7-1.7-6.52,3.81-9.08,9.48-9.46a3.08,3.08,0,0,0,3-3c1.25-17.37,9-33.18,24.06-42.49A58.53,58.53,0,0,1,57.2,48.51c1.57-.46,3.16-.84,4.76-1.18.48-.1,2.73-.43,1.3-.25,3.79-.46,3.83-6.47,0-6Z"/><path class="cls-6" d="M86.71,50.17c-.55,1.33.75-1.52,1-2a53.46,53.46,0,0,1,3.4-5.62c3.63-5.26,8.46-9.94,14.49-12.26,3.57-1.37,2-7.18-1.59-5.79-10.71,4.12-18.73,13.66-23.1,24.1-1.48,3.56,4.32,5.11,5.79,1.59Z"/><path class="cls-6" d="M31.71,85.17c2-6,5.82-12.4,11.62-15.2,3.48-1.68.44-6.86-3-5.19-7.19,3.48-11.91,11.44-14.38,18.8-1.23,3.67,4.57,5.24,5.79,1.59Z"/><path class="cls-6" d="M111.82,26.37c3.86,0,3.86-6,0-6s-3.87,6,0,6Z"/></g></g></svg>