<svg xmlns="http://www.w3.org/2000/svg" viewBox="0 0 200.61 167.39"><defs><style>.cls-1{fill:#fbeed7;}.cls-2{fill:#fff;}.cls-3{fill:#ff7657;}.cls-4{fill:#e85d46;}.cls-5{fill:#fc5135;}.cls-6{opacity:0.3;}.cls-7{fill:#1a3264;}</style></defs><title>Fichier 15</title><g id="Calque_2" data-name="Calque 2"><g id="Calque_3" data-name="Calque 3"><rect class="cls-1" x="4.24" y="67.01" width="191" height="94"/><rect class="cls-2" x="17.24" y="99.01" width="179" height="10"/><rect class="cls-3" x="17.24" y="109.01" width="179" height="23"/><polyline class="cls-2" points="4.24 67.01 20.24 68.01 63.74 22.76 54.24 18.01 4.24 67.01"/><polyline class="cls-3" points="16.24 69.01 63.86 21.44 190.49 66.76 17.24 69.25"/><ellipse class="cls-4" cx="103.24" cy="51.01" rx="16" ry="7"/><circle class="cls-5" cx="98.24" cy="41.01" r="14"/><circle class="cls-2" cx="92.24" cy="35.01" r="7"/><g class="cls-6"><circle class="cls-4" cx="129.24" cy="79.01" r="3"/><circle class="cls-4" cx="162.24" cy="83.01" r="3"/><circle class="cls-4" cx="188.24" cy="91.01" r="3"/><circle class="cls-4" cx="182.24" cy="143.01" r="3"/><circle class="cls-4" cx="100.24" cy="83.01" r="3"/></g></g><g id="Calque_2-2" data-name="Calque 2"><path class="cls-7" d="M6.24,101V73.11c0-2.73,0-4.51,1.89-6.63,2.41-2.73,5.34-5.13,8-7.66L42,34,51.27,25c2.28-2.2,4.08-3.18,7.5-2.23,9.85,2.76,19.5,7,29.14,10.4,3.65,1.3,5.21-4.5,1.6-5.79L61.27,17.34c-4.48-1.59-8.54-1.69-12.39,1.67-2.45,2.14-4.72,4.53-7.06,6.78L14.91,51.64C10.12,56.24.63,62.43.24,69.75-.3,80.11.24,90.63.24,101c0,3.86,6,3.87,6,0Z"/><path class="cls-7" d="M6.24,116v-4a3,3,0,0,0-3-3,3.06,3.06,0,0,0-3,3v4a3,3,0,0,0,3,3,3,3,0,0,0,3-3Z"/><path class="cls-7" d="M149.26,55.08l33.87,12.08c4.39,1.56,10.67,2.42,11.11,8.1.27,3.44,0,7,0,10.46v62.17c0,5.41-.15,11.45-7,12.92-5.31,1.15-11.66.2-17,.2h-127c-9,0-18,.23-27,0-6.79-.17-10-4.63-10-11.07V130.18c0-3.86-6-3.87-6,0V148.9c0,8,2.68,15.58,11.37,17.7,6.06,1.47,13.4.41,19.53.41h91.8c20.73,0,41.66.84,62.38,0a15.09,15.09,0,0,0,14.92-14.78c.15-3.84,0-7.71,0-11.55V92.82c0-9.49,3-24.44-8.06-28.79C180,59.23,167.4,55.19,155,50.79l-4.19-1.5c-3.64-1.3-5.21,4.5-1.59,5.79Z"/><path class="cls-7" d="M111.29,41.54l23.29,8.3c3.65,1.3,5.22-4.49,1.6-5.78l-23.29-8.31c-3.65-1.3-5.22,4.5-1.6,5.79Z"/><path class="cls-7" d="M3.71,72.25H193.24c3.86,0,3.87-6,0-6H3.71c-3.86,0-3.86,6,0,6Z"/><path class="cls-7" d="M197.24,129l-67.45.19-97.6.28c-3.49,0-7.23.4-10.71,0-4.05-.43-2.74-4.83-2.74-8.32V107.83c0-1.9-1-7.22,1.14-8.32,1.24-.63,4.46,0,5.81,0H116c26.58,0,53.24.59,79.81,0,.47,0,.94,0,1.41,0,3.86,0,3.87-6,0-6H27.55c-2.49,0-5.05-.17-7.53,0-8.16.56-7.28,8.38-7.28,14.32,0,6.91-.92,14.51.11,21.36.79,5.26,5.16,6.33,9.58,6.32l88.62-.25c28.2-.08,56.48.4,84.68-.24h1.51c3.86,0,3.87-6,0-6Z"/><path class="cls-7" d="M109.24,41c-.67,14.08-22,14.23-22,0s21.33-14.08,22,0c.19,3.85,6.19,3.87,6,0-.44-9.22-7.43-17-17-17a17,17,0,0,0,0,34c9.57,0,16.56-7.77,17-17C115.43,37.15,109.43,37.16,109.24,41Z"/><path class="cls-7" d="M98.24,19c0-6.17,4-12.39,11-13,3.82-.32,3.86-6.33,0-6C99.13.88,92.31,9,92.24,19c0,3.86,6,3.87,6,0Z"/></g></g></svg>