<svg xmlns="http://www.w3.org/2000/svg" viewBox="0 0 210.3 214.08"><defs><style>.cls-1{fill:#f9c178;}.cls-2{fill:#fab95b;}.cls-3{fill:#e29e44;}.cls-4{fill:#ffb3a6;}.cls-5{fill:#ff7657;}.cls-6{fill:#fffdfa;}.cls-7{fill:#fff;}.cls-8{fill:#1a3263;}</style></defs><title>Fichier 1</title><g id="Calque_2" data-name="Calque 2"><g id="Calque_3" data-name="Calque 3"><path class="cls-1" d="M117.16,209.08l-61-1c-5,0-15-1-15-6v-4a9,9,0,0,1,9-9h69a9,9,0,0,1,9,9v4C128.16,207.05,122.13,209.08,117.16,209.08Z"/><path class="cls-2" d="M67.16,192.08h51c16,0,49-5.85,49-43.88V84.83a9.87,9.87,0,0,0-10-9.75h-146c-5.52,0-8,3.36-8,8.75v49.25"/><path class="cls-2" d="M3.16,125.32V149.2c0,38,33,43.88,49,43.88h16.5"/><path class="cls-3" d="M118.16,79.08s10,74-4,94-17,22-17,22,57-2,67-25,4-90,2-91S118.16,79.08,118.16,79.08Z"/><path class="cls-4" d="M45.16,76.08s4-9,9-11,8-5,8-9,9-15,12-16,6-10,3-16-6-16-7-14-7,16-7,21c0,2.83-4,5-4,5a8.68,8.68,0,0,0-9,2c-4,4-9,17-9,17s-18,4-18,11v10Z"/><path class="cls-5" d="M41.16,73.08s-3-16,14-16c0-11,5-17,19-17,2-15-4-30-4-30s5-7,8-4,6,10,9,12,17,4,20,8a16.7,16.7,0,0,1,3,9s13,1,16,6,4,14,4,14,14-1,18,9,2,12,2,12l-108-1Z"/><path class="cls-6" d="M39.16,77.08a32.7,32.7,0,0,1-2,19l-20-2v28c0,14-6,57.6,27,69.3-23-4.3-39-4.3-41-41.3a642.85,642.85,0,0,1,0-68S13.16,70.08,39.16,77.08Z"/><rect class="cls-7" x="50.85" y="44.48" width="4" height="6.2" rx="2" ry="2" transform="translate(70.88 116.37) rotate(-146.69)"/><rect class="cls-7" x="32.06" y="63.76" width="5.04" height="7.3" rx="2.52" ry="2.52" transform="translate(26.47 142.74) rotate(-146.69)"/></g><g id="Calque_2-2" data-name="Calque 2"><path class="cls-8" d="M.16,108v9.25c0,3.87,6,3.87,6,0V108c0-3.86-6-3.86-6,0Z"/><path class="cls-8" d="M86.16,196.08h1.3c3.86,0,3.87-6,0-6h-1.3c-3.86,0-3.86,6,0,6,28.51,0,70,5.33,82.85-28.18,4.14-10.81,3.15-22.88,3.15-34.25v-42c0-3.69.43-7.74-1.19-11.16-2.61-5.5-7.84-7.39-13.51-7.44-12.26-.11-24.53,0-36.79,0H18.39c-4.76,0-9.48-.33-13.46,2.91C-1.36,81.11.16,89.89.16,97.08c0,3.86,6,3.87,6,0,0-5.56-2-15.85,5.14-17.76,2.62-.7,5.87-.24,8.53-.24h128.3c3.45,0,7-.16,10.4,0,5.46.24,7.55,3.85,7.63,8.67.35,20.46.21,41,0,61.45-.1,9.93-2.46,20-9.37,27.41-5.25,5.66-12.24,9.21-19.61,11.24-6.79,1.86-13.6,2.23-20.6,2.23H86.16c-3.86,0-3.86,6,0,6h1.3c3.86,0,3.87-6,0-6h-1.3c-3.86,0-3.86,6,0,6Z"/><path class="cls-8" d="M.16,129.08c0,17.89-2,37.56,11.13,51.77,14.9,16.07,37.34,15.23,57.37,15.23,3.86,0,3.87-6,0-6-18.35,0-39.41,1.32-53.12-13.47-11.81-12.75-9.38-31.52-9.38-47.53,0-3.86-6-3.87-6,0Z"/><path class="cls-8" d="M65.16,190.08h-24a3,3,0,0,0-3,3c.66,21.55,32.11,21,47.15,21,14.39,0,48.1-.05,48.85-21a3,3,0,0,0-3-3h-43c-3.86,0-3.86,6,0,6h43l-3-3c-.25,6.92-7.54,10-13.27,11.74-9.53,2.84-19.7,3.28-29.58,3.26-9.28,0-18.9-.2-27.93-2.6-6.45-1.72-13-4.92-13.22-12.4l-3,3h24c3.86,0,3.87-6,0-6Z"/><path class="cls-8" d="M167.16,90.83h-147c-4.82,0-4.83,7.5,0,7.5h147c4.83,0,4.84-7.5,0-7.5Z"/><path class="cls-8" d="M24.83,76.08c0,.11.14-1,.34-1.82a21.92,21.92,0,0,1,2.15-5.61c3.53-6.28,9.85-9.09,16.84-9.57a3.06,3.06,0,0,0,2.9-3.8c-2.59-14.92,13.84-17.69,25.1-17.2,3.86.17,3.86-5.83,0-6-15.93-.7-34.21,5.59-30.89,24.8l2.89-3.8c-13,.89-24.26,9.42-25.33,23-.3,3.85,5.7,3.83,6,0Z"/><path class="cls-8" d="M154.16,75.08c-.46-7.74-4.29-16-11.35-19.75-6.51-3.44-14.6-2.25-21.68-2.25h-8c-3.86,0-3.86,6,0,6h5.11c6.16,0,13.46-1.16,19.36.6,6.53,2,10.15,9.06,10.53,15.4.23,3.83,6.24,3.86,6,0Z"/><path class="cls-8" d="M133.66,56.08c-.95-7.61-4.08-16.1-10.47-20.75-7.4-5.39-18.37-3.25-27-3.25-3.86,0-3.86,6,0,6h4.71c5.53,0,12.73-1.41,17.71,1.38,3.84,2.15,6.12,6.46,7.51,10.49a43.62,43.62,0,0,1,1.28,4.64c.1.45.43,2.55.29,1.49.48,3.78,6.48,3.83,6,0Z"/><path class="cls-8" d="M112,35a18,18,0,0,0-9.17-15.76,18.85,18.85,0,0,0-6.93-2c-2.92-.32-7.07.42-9.27-2s-1.41-6.87-2.34-9.92C81.48-4.06,72,.85,67.57,5.85c-7.41,8.4-10.91,20.5-5.5,30.82,1.79,3.42,7,.39,5.18-3C62.79,25.13,66.91,14,73.9,8c1.76-1.5,3.54-3.28,4.7-.82s.54,5.6,1.39,8.12a10.6,10.6,0,0,0,5.36,6.27c4.18,2.12,8.93.8,13.23,2.34A11.72,11.72,0,0,1,106,35c0,3.87,6,3.87,6,0Z"/><path class="cls-8" d="M67.16,59.08h18c3.86,0,3.87-6,0-6h-18c-3.86,0-3.86,6,0,6Z"/><path class="cls-8" d="M177.16,102.08c6.24,0,13.34-.84,19,2.31,8.71,4.83,10,18.12,5.56,26.22-6.67,12.24-21.64,20.67-34.11,26-3.54,1.51-.49,6.68,3,5.18,14.53-6.21,33.53-17.28,38.49-33.32,3.05-9.86-.08-23.18-9.21-28.83-6.84-4.23-15.11-3.56-22.8-3.56-3.86,0-3.86,6,0,6Z"/></g></g></svg>