<svg xmlns="http://www.w3.org/2000/svg" viewBox="0 0 274.21 300.68"><defs><style>.cls-1,.cls-5,.cls-6{fill:#fff;}.cls-2{fill:#9bdda9;}.cls-3{fill:#f95c41;}.cls-4{fill:#1a3263;}.cls-5{opacity:0.7;}.cls-6{opacity:0.3;}</style></defs><title>Fichier 7</title><g id="Calque_2" data-name="Calque 2"><g id="Calque_3" data-name="Calque 3"><path class="cls-1" d="M242.88,173H31C5.1,173,3,174,3,183c0,8.75,0,69.49,76.09,111.45A28.38,28.38,0,0,0,92.84,298h87.71a28.77,28.77,0,0,0,13.82-3.55C271,252.49,271,191.75,271,183,271,174,268.94,173,242.88,173Z"/><path class="cls-2" d="M66.53,218s-7-23-46-15c0,13,2,19,2,19s19,3,19,15-1,14-1,14,24,22,31,26c8-5,23-10,34,7h57s8-13,20-13,14,2,14,2,9-15,17-17a111.88,111.88,0,0,0,15-5s17-20,21-33c-12-8-30-13-31-56,0-6-21-4-25-4s-10-11-16-13-15,0-15,0,1-23-13-28a33.14,33.14,0,0,0-20.44-.3"/><path class="cls-2" d="M129.09,117.7,100.53,123s-3-8-8-10-14-17-29-4-4,22-4,22l-8.29,19.12s-17.05,9.44-15.88,20.16S20.53,204,20.53,204l35,22,19,3"/><path class="cls-2" d="M172.54,144.15s19-27.15,25-31.15,9,5,13,4,20-5,29,7,3,23,4,25,6,10,5,12-11.83,11.5-11.83,11.5L182.53,169Z"/><path class="cls-2" d="M165.53,106s-11-19-3-32,24-17,24-17,10,12,8,24S185.53,103,165.53,106Z"/><path class="cls-3" d="M132,135.5c1-11,1-25-18-27s-22,19-22,19"/><path class="cls-3" d="M180.24,252.69c7-8.75,14.75-20.63-.9-33.28s-29.93,3.43-29.93,3.43"/><path class="cls-3" d="M119.93,203.5c-6.86-8.86-16.56-19.21-32.55-7s-3.75,29.9-3.75,29.9"/></g><g id="Calque_2-2" data-name="Calque 2"><path class="cls-4" d="M110.64,129.2c-.35,1.16-.91,2.19-1.3,3.33,0,.14-1.52,1.93-.26.91,1-.78-.29-.11-1,0a35.79,35.79,0,0,0-8.25,2.84c-5.85,2.76-9,8.1-13.45,12.58l3.63-.47a43.42,43.42,0,0,0-23.38-7c-13.75.12-25.75,9.89-32.1,21.66a16.43,16.43,0,0,0-2.19,10.57c.33,2,1.47,4,1.15,6.08-.69,4.3-5,9-7.46,12.48-2.13,2.94-4.34,5.83-6.65,8.64-2.43,3,1.79,7.23,4.24,4.24,4.84-5.89,9.76-12.05,13.43-18.75,1.56-2.84,2.84-5.65,2.37-8.94-.31-2.18-1.39-4.2-1.29-6.43.21-4.79,4.37-9.31,7.36-12.6,5.29-5.82,11.21-10.27,19.27-10.88A37,37,0,0,1,87,153.59a3,3,0,0,0,3.63-.47c2.28-2.31,4.27-4.85,6.42-7.28,2.68-3,5.89-4.62,9.75-5.81,1.59-.49,3.77-.57,5.22-1.44,2.45-1.47,3.63-5.3,4.38-7.79,1.12-3.71-4.67-5.29-5.78-1.6Z"/><path class="cls-4" d="M69.42,217.2c-6.26-20-33.3-20.3-49.69-17.09a3,3,0,0,0-2.2,2.89c0,6.45.1,13.57,2.11,19.8a3,3,0,0,0,2.09,2.09c5,.82,10.87,2.7,14.39,6.48,3.34,3.59,2.49,8.64,2.24,13.17-.08,1.49-.22,3-.42,4.45-.06.48-.6,1.83,0,.5a3.08,3.08,0,0,0,.47,3.63c9.9,9.07,20,19.58,31.61,26.47a3,3,0,0,0,3,0c4.46-2.71,9.58-4.73,14.89-4.31a17.27,17.27,0,0,1,9.52,3.93c2.47,2,4,5.88,6.57,7.38,1.53.88,3.8.41,5.47.41h42.4c3.32,0,6.82.32,10.13,0,2.79-.27,3.49-2.27,5.15-4.25,3.94-4.71,9.05-8.43,15.36-8.75a36.14,36.14,0,0,1,10.37.81c.8.21,2.28,1,1.51.31a3,3,0,0,0,4.71-.61c3-5,6.74-10.17,11.44-13.65,5.73-4.25,14.69-3.19,20.17-7.83,3.81-3.22,6.89-8.63,9.75-12.64,4.75-6.68,9.37-13.75,11.94-21.59a3.05,3.05,0,0,0-1.38-3.39c-5.12-3.37-10.67-6.11-15.2-10.32-6.75-6.26-10.33-14.72-12.25-23.6a87.18,87.18,0,0,1-1.52-10c-.31-3.32.11-7.13-.65-10.37s-3.72-4.77-6.82-5.5c-4.31-1-8.91-1-13.31-.86-3.7.08-7.12,1.17-10-1.5-4.29-4-7.71-9.58-13.67-11.3-5.06-1.45-10.83-.9-15.93.19l3.8,2.89a43.54,43.54,0,0,0-4.11-20.64c-6.13-12.3-21-13.9-33.13-10.56-3.72,1-2.14,6.82,1.59,5.79,11.27-3.12,23.51-1.22,27.58,10.79A41.15,41.15,0,0,1,159.53,145a3,3,0,0,0,3.8,2.89c4.43-.94,10.49-1.74,14.58.61,4.55,2.6,7.09,7.8,11.33,10.81,2.82,2,5.48,1.65,8.77,1.52a74.09,74.09,0,0,1,13.07.19c1.09.15,3.69.31,4.47,1.25.62.75.33,7.15.52,9.18a87.25,87.25,0,0,0,3.15,17.11c2.34,7.7,6.21,14.94,12.1,20.51,5,4.71,11,7.79,16.7,11.52l-1.38-3.39c-2.58,7.87-7.58,15-12.41,21.64q-2.8,3.87-5.8,7.58l-1.64,2c-.66.79,1.36-.21-.49.26-4.48,1.13-9.16,3-13.57,4.42a22.71,22.71,0,0,0-8.44,5.24,62.17,62.17,0,0,0-10.35,13.14l4.71-.61a10.33,10.33,0,0,0-4.89-2c-5.18-1.09-11.34-1.52-16.48-.15-7.16,1.9-13.45,7.57-17.34,13.77l2.59-1.49h-57l2.59,1.49c-4.69-6.91-11-12.44-19.66-13.16-6.53-.55-12.94,1.72-18.44,5.08h3c-11.14-6.62-20.86-16.8-30.39-25.53l.47,3.63c1-2.11,1-4.61,1.17-6.88.39-5.58,1.06-11.62-2.25-16.46-4-5.84-11.95-8.95-18.71-10.06l2.09,2.09c-1.85-5.75-1.85-12.24-1.89-18.2l-2.2,2.89c11.5-2.25,25.3-3.15,35.31,4.2a21.78,21.78,0,0,1,5.6,6,12.55,12.55,0,0,1,1.4,2.75c1.15,3.67,6.94,2.1,5.78-1.6Z"/><path class="cls-4" d="M197.42,228.8c0,.29-.13.1.37-.64s.85-1.21,1.32-1.79a30.07,30.07,0,0,1,6.81-5.92c9.51-6.15,21-7.44,32.06-6.77,3.86.24,3.84-5.76,0-6-12.32-.74-25.37,1-35.8,8.06-3.36,2.28-9.88,6.93-10.54,11.46-.56,3.78,5.22,5.41,5.78,1.6Z"/><path class="cls-4" d="M124,153.59c-1.2.51,1.4-.43,1.81-.54a24.76,24.76,0,0,1,5.54-.91c6.43-.29,11.74,2.23,16,7,2.59,2.87,6.82-1.38,4.24-4.24A26.74,26.74,0,0,0,121,148.41c-3.55,1.51-.49,6.68,3,5.18Z"/><path class="cls-4" d="M40.42,141.2c-1.23-3.09.6-7.2,2-9.85,1.62-3.07,5.08-5.6,5-9.15-.09-4-1.49-7.45-.59-11.6,1.55-7.16,7.18-11,14.37-10.55a20,20,0,0,1,10.2,3.29,19.13,19.13,0,0,1,2.13,1.78c.19.17,1.2,1.46.41.39a3.08,3.08,0,0,0,3.39,1.38,33.67,33.67,0,0,1,8.85-2c5.52-.4,8.89,2.86,12.45,6.68,2.64,2.83,6.88-1.42,4.24-4.24-3.72-4-8-8.11-13.76-8.46a33.9,33.9,0,0,0-13.38,2.27l3.39,1.38c-5.47-7.37-17.07-10.24-25.59-7.61C41,98.75,38.93,112.69,41.64,123.8l.77-2.92c-4.26,5.31-10.74,14.48-7.77,21.92,1.41,3.54,7.21,2,5.78-1.6Z"/><path class="cls-4" d="M168.12,104.48c-4.59-8-8.05-19.77-3.34-28.37,4.41-8,13.77-14,22.55-16.22l-2.92-.77c6.11,7.46,9.05,17.29,5.88,26.57-3.86,11.27-14.6,15.63-25.56,17.42-3.8.61-2.19,6.4,1.59,5.78,13.19-2.15,25.27-8.28,29.75-21.6,3.85-11.42,0-23.32-7.41-32.41a3,3,0,0,0-2.92-.77c-10.58,2.72-22,10.16-26.76,20.18-5,10.4-1.51,23.65,4,33.22C164.85,110.87,170,107.85,168.12,104.48Z"/><path class="cls-4" d="M175.13,145.67q5.94-8.49,12.25-16.71A133.88,133.88,0,0,1,196.45,118c.92-1,2.5-3,4-3,1.93-.11,3.74,2.49,5.19,3.49,3.24,2.23,5.82,1.24,9.37.62,5.23-.9,10.94-.85,15.8,1.48,7.07,3.4,11,11.47,10.75,19.1-.12,3.48-1.95,7.49-.62,10.85.89,2.26,2.46,4.3,3.5,6.5,1.35,2.88,1.54,2.65-.63,4.83-2.94,3-6.09,5.77-9.24,8.54-2.9,2.55,1.36,6.78,4.25,4.24,3.36-3,6.78-5.93,9.87-9.17,3.31-3.48,3.37-6.07,1.39-10.48-1-2.19-3.19-4.69-3.71-7,.16.71.23-1,.31-1.42.29-1.52.55-3.06.71-4.6a27.66,27.66,0,0,0-5.74-20.06,24.7,24.7,0,0,0-17.36-9.16,36.52,36.52,0,0,0-8.36.2c-1.61.21-4.31,1.36-5.87,1.12-1.73-.26-3.34-2.63-4.85-3.56a8.23,8.23,0,0,0-7.45-1c-3.9,1.47-6.86,5.59-9.43,8.66C181.81,126,175.79,134.3,170,142.64c-2.22,3.17,3,6.17,5.18,3Z"/><path class="cls-4" d="M219.41,135.88l-19.17,19.69c-2.69,2.77,1.55,7,4.25,4.25l19.16-19.7c2.7-2.77-1.54-7-4.24-4.24Z"/><path class="cls-4" d="M122.53,65c6.43,0,6.44-10,0-10s-6.45,10,0,10Z"/><path class="cls-4" d="M156.53,10c6.43,0,6.44-10,0-10s-6.45,10,0,10Z"/><path class="cls-4" d="M63.53,40c6.43,0,6.44-10,0-10s-6.45,10,0,10Z"/><path class="cls-4" d="M135,135.5c.6-6.85.77-14.39-3-20.45-4.44-7.13-13.68-10.12-21.75-9.65-11.37.66-19.52,10.46-21.14,21.3-.57,3.78,5.21,5.41,5.78,1.6,1.13-7.49,5.91-15.45,13.91-16.74,6.54-1,15.15,1.16,18.49,7.33,2.7,5,2.18,11.17,1.71,16.61-.34,3.85,5.67,3.82,6,0Z"/><path class="cls-4" d="M152,224.59c7.42-5.67,18.26-8.33,26.23-2.3,9.58,7.24,8.17,18.92.14,26.59-2.8,2.67,1.45,6.91,4.24,4.24,9.77-9.33,11.78-24.1,1.4-33.81-9.87-9.22-24.75-7.76-35,.1-3,2.31-.05,7.53,3,5.18Z"/><path class="cls-4" d="M86.12,223.49c-2.72-5.81-4.5-15-.86-21.16s12.38-9.2,19.08-7c5.27,1.77,9.25,5.91,13.07,9.75,2.73,2.74,7-1.5,4.24-4.24-5-5-10.37-10.16-17.51-11.77a23.52,23.52,0,0,0-22.34,7.75c-6.77,8.24-5.1,20.61-.86,29.65,1.64,3.5,6.81.46,5.18-3Z"/><rect class="cls-5" x="7.53" y="178" width="259" height="9" rx="4.5" ry="4.5"/><path class="cls-6" d="M165.77,172.5A89.05,89.05,0,0,1,45.54,270.38S-6,227.5,3,175.5C52,169.5,165.77,172.5,165.77,172.5Z"/><path class="cls-4" d="M70.78,169.5h-7.5c-3.86,0-3.87,6,0,6h7.5c3.86,0,3.87-6,0-6Z"/><path class="cls-4" d="M46,169.5c-9.53,0-19.1-.23-28.63.21-4.2.19-9.3.23-13,2.49C-.45,175.11-.09,181.06.08,186c.58,16.88,5.52,33.55,13.33,48.46a134.71,134.71,0,0,0,24.41,32.76,163.68,163.68,0,0,0,18.79,16c7.47,5.48,15.62,11.3,24.21,14.88s18.85,2.43,28,2.43h27.28c14.8,0,29.65.34,44.45,0,9-.2,16.14-4.17,23.65-8.74A186,186,0,0,0,226,276.21a143.44,143.44,0,0,0,29.41-33,116.9,116.9,0,0,0,18.31-53.1c.35-4.36,1.15-10.29-.77-14.33-1.52-3.19-4.66-4.59-8-5.26-6.88-1.38-14.22-1.05-21.2-1.06q-61-.08-122,0H92c-3.86,0-3.87,6,0,6H219.9c11.36,0,22.76-.21,34.11.12,3.17.09,10.47-.59,13,2,1.32,1.34,1,3.86,1,5.58a102.55,102.55,0,0,1-8.17,38.72c-10.78,26-31,46.87-54.46,62-7.65,4.94-15.49,10.34-24.88,10.59-2.34.06-4.69,0-7,0h-73c-2.52,0-5.05.07-7.56,0-9.09-.25-16.59-5.37-24-10.14a156.63,156.63,0,0,1-36-31.44C19.79,237.09,10.58,218,7.24,197.69A91,91,0,0,1,6,183.33c0-1.74-.36-4.29.94-5.65,2.53-2.67,9.75-2,13-2.06,8.69-.26,17.41-.12,26.11-.12,3.86,0,3.87-6,0-6Z"/></g></g></svg>