<svg xmlns="http://www.w3.org/2000/svg" xmlns:xlink="http://www.w3.org/1999/xlink" viewBox="0 0 218.07 211.36"><defs><style>.cls-1{fill:#ffe5bb;}.cls-2{fill:#fab95b;}.cls-3{fill:url(#Dégradé_sans_nom_79);}.cls-4{fill:#9bdda9;}.cls-5{fill:#fff;}.cls-6{fill:#1a3263;}</style><linearGradient id="Dégradé_sans_nom_79" x1="49.65" y1="113.3" x2="207.01" y2="113.3" gradientUnits="userSpaceOnUse"><stop offset="0" stop-color="#fff" stop-opacity="0"/><stop offset="0.12" stop-color="#ff8657" stop-opacity="0.1"/><stop offset="0.5" stop-color="#fab95b"/></linearGradient></defs><title>Fichier 5</title><g id="Calque_2" data-name="Calque 2"><g id="Calque_3" data-name="Calque 3"><path class="cls-1" d="M159.4,208.21h15.09a16,16,0,0,0,16.16-15.91V94.47h0c4.5-1.55,15-7,15-24,0-21.45-20.62-47.73-92-48.21h-2c-71.37.48-92,26.76-92,48.21,0,15.86,9.12,21.68,14,23.67h0v98.2a16,16,0,0,0,16.17,15.91h90.71"/><rect class="cls-2" x="47.65" y="194.21" width="138" height="14" rx="6.5" ry="6.5"/><path class="cls-3" d="M174.65,196.21s1-105,1-109,17-1,14-22-36-34-80-30-52,11-52,11l-8-15s54-21,104-7,55,33,53,44-16,27-16,27l-2,108-3,4Z"/><path class="cls-4" d="M191.65,137.21s27,7,23-15a30.27,30.27,0,0,0-24-25Z"/><path class="cls-4" d="M191.65,136.21l-1,50s24-8,22-27-10-21-10-21"/><path class="cls-5" d="M11.39,108.71c6.27-12.46,13.74-21.4,16.4-19.25,5.86,4.75,5.86,18.75,5.86,18.75l-1,68s-31-9-31-33A64.19,64.19,0,0,1,5,124.33"/><path class="cls-2" d="M32.65,150.21c-1,.25,0,0-1,0h-2a12,12,0,0,1-12-12v-2a12,12,0,0,1,12-12h2a11.94,11.94,0,0,1,2.41.24"/><path class="cls-5" d="M41,34.75S57.65,5.21,77.65,4.21s43,16.18,43,16.18S60.4,21.29,41,34.75Z"/></g><g id="Calque_2-2" data-name="Calque 2"><path class="cls-6" d="M159.4,211.21c3.86,0,3.87-6,0-6s-3.86,6,0,6Z"/><path class="cls-6" d="M159.4,211.21c11.07,0,24.17,2,31.17-8.75,3.91-6,3.08-13.32,3.08-20.13V92.64l-3,3c2.95,0,6.66-2.89,8.76-4.68a26,26,0,0,0,8.07-13.18A37.9,37.9,0,0,0,205.83,54c-6.86-16.77-24.07-26.17-40.6-31.16S131,16.39,113.65,16.22l3,3h0a3,3,0,0,0-3-3h-2a3,3,0,0,0-3,3h0l3-3c-25.18.25-54.07,2.65-75.36,17.66C24.68,42.06,16.38,54.49,16.67,69.05c.13,6.81,1.94,13.66,6.34,19,2.19,2.64,6.86,7.23,10.64,7.23l-3-3v90.65c0,3.91-.31,8,.24,11.89,1.4,9.95,10,16.27,19.72,16.41,14.85.2,29.71,0,44.56,0h45.36c3.86,0,3.86-6,0-6H55.05c-6.56,0-13.13-.18-16.82-6.9-2.23-4.08-1.58-9.44-1.58-13.94V92.26a3,3,0,0,0-3-3c1.41,0,.68.22-.18-.38-.59-.42-1.29-.71-1.89-1.11a18.5,18.5,0,0,1-4.78-4.6c-3.31-4.61-4.32-10.53-4.13-16.1A32,32,0,0,1,27,52.22c8-13.85,24-20.89,38.82-24.77,14.94-3.91,30.45-5.07,45.84-5.23a3,3,0,0,0,3-3h0l-3,3h2l-3-3h0a3.06,3.06,0,0,0,3,3c23.11.23,48.75,2.28,69,14.64,10.41,6.36,19.09,16.44,20,29.06.39,5.79-.5,12-3.84,16.91a18.53,18.53,0,0,1-4.57,4.65,21,21,0,0,1-2.46,1.46c-.27.15-1.84.7-1.06.7a3,3,0,0,0-3,3v47.22c0,17.24.67,34.63,0,51.86-.3,7.77-5.73,13.18-13.49,13.49-4.9.19-9.85,0-14.76,0-3.86,0-3.86,6,0,6Z"/><rect class="cls-2" x="151.65" y="140.21" width="2" height="6"/><path class="cls-2" d="M153.34,174.16a60.35,60.35,0,0,0-6.69-1.95v-2c1.08,0,5.88,1.57,7.32,2Z"/><rect class="cls-2" x="151.65" y="97.21" width="10" height="2"/><rect class="cls-2" x="141.65" y="59.09" width="2" height="8.25" transform="translate(46.73 186.27) rotate(-75.96)"/><rect class="cls-2" x="113.34" y="85.71" width="7.62" height="2" transform="translate(-8.71 160.21) rotate(-66.79)"/><rect class="cls-2" x="80.65" y="50.21" width="2" height="5"/><rect class="cls-2" x="99.65" y="156.21" width="9" height="2"/><rect class="cls-2" x="65.65" y="139.21" width="4" height="2"/><rect class="cls-2" x="86.65" y="108.21" width="2" height="8"/><rect class="cls-2" x="49.65" y="63.21" width="5" height="2"/><rect class="cls-2" x="73.65" y="169.21" width="2" height="7"/><path class="cls-6" d="M15,110.22c2.85-5.54,6.47-13.6,11.8-17.28,1.34-.92.31-.76,1-.19,1,.79,1.57,2.61,2,3.76a33.32,33.32,0,0,1,1.62,7.6,84.46,84.46,0,0,1,.15,10.19l-.7,47.55-.21,14.36,3.8-2.89A52.18,52.18,0,0,1,16.76,164c-4.43-3.59-8.26-8.14-10-13.64-2.6-8.19-.3-17.26,2.12-25.2,1.13-3.7-4.66-5.28-5.78-1.59-4.85,15.85-5.2,31.62,7.9,43.37A57.87,57.87,0,0,0,32.86,179.1a3,3,0,0,0,3.79-2.89l.65-43.78c.18-12.32,2.75-28.77-2.87-40.31-8-16.49-21,7.93-24.63,15.07-1.77,3.43,3.41,6.47,5.18,3Z"/><path class="cls-6" d="M31.86,147.32l-.46.11,3.39,1.37c-1.23-1.77-3-1.49-4.88-1.59-4.35-.24-8.14-2.76-9.09-7.23-1.72-8.13,4.51-13.85,12.45-12.63,3.77.58,5.4-5.2,1.59-5.79C24.63,120,15,125.29,14.65,136.47c-.15,4.81,1.25,9.42,4.85,12.76,3.78,3.49,7.91,3.51,12.66,4l-2.59-1.48,0,.05A3.1,3.1,0,0,0,33,153.21l.46-.11c3.75-.91,2.16-6.7-1.59-5.78Z"/><path class="cls-6" d="M44.62,35.26C51,24.07,61.22,10.88,74,7.07,84.15,4,95.92,8.5,105,13a97.31,97.31,0,0,1,15.14,9l1.51-5.59c-11.24.18-22.51,1-33.68,2.26-15.57,1.76-34.1,3.52-47.46,12.51-3.19,2.14-.19,7.34,3,5.18C56.56,27.58,75.05,26,90.23,24.4c10.42-1.1,20.94-1.84,31.42-2,3.19-.05,3.8-3.89,1.52-5.59C109.93,7,89.22-3.75,72.4,1.28c-14.34,4.29-25.82,18.36-33,31C37.53,35.6,42.71,38.63,44.62,35.26Z"/><path class="cls-6" d="M190.86,140.1c10.64,2.71,26.15,1.35,27.15-12.41,1.1-15.23-11.44-31-26.56-33.37-1.85-.3-3.85.76-3.8,2.89l1,40c.1,3.85,6.1,3.87,6,0l-1-40-3.79,2.89C202,102,211.62,113.51,212,125.67c.38,10.69-11.95,10.59-19.59,8.65C188.71,133.36,187.11,139.15,190.86,140.1Z"/><path class="cls-6" d="M188.65,136.21l-1,50a3,3,0,0,0,3.8,2.89c10-3.41,20.64-11,23.52-21.69,2.39-8.86-.47-29-11.52-32.09-3.73-1-5.32,4.76-1.59,5.78a3.81,3.81,0,0,1,1,.61,12.91,12.91,0,0,1,3.2,4.13c3.32,6.23,5.19,15.41,2.38,22.11-3.11,7.41-11.16,12.84-18.59,15.37l3.79,2.89,1-50c.08-3.86-5.92-3.86-6,0Z"/></g></g></svg>