<svg xmlns="http://www.w3.org/2000/svg" viewBox="0 0 292.14 184.03"><defs><style>.cls-1{fill:#f3fbff;}.cls-2{fill:#7c4f2d;}.cls-3{fill:#ff7657;}.cls-4{opacity:0.2;}.cls-5{fill:#353535;}.cls-10,.cls-6{fill:#fff;}.cls-6{opacity:0.9;}.cls-7{fill:#1a3263;}.cls-8{fill:#f9f15d;}.cls-9{fill:#fff8ee;}.cls-11{fill:#d35a46;}.cls-12{fill:#fab95b;}.cls-13{fill:#fbeed7;}</style></defs><title>Fichier 22</title><g id="Calque_2" data-name="Calque 2"><g id="Calque_3" data-name="Calque 3"><path class="cls-1" d="M221.94,165.33h67V122c0-35-17-36-20-64s3-55,3-55h-49s10,36,5,51-15,41-15,41"/><path class="cls-2" d="M268.94,57.67c3,28,20,29,20,64V165h-67l-9-70.33s10-26,15-41h41Z"/><polygon class="cls-3" points="268.94 24 228.94 24 222.94 3 272.94 3 268.94 24"/><g class="cls-4"><path class="cls-5" d="M268.94,165.33h20V122c0-35-17-36-20-64s3-55,3-55h-24s-6,41,0,53,20,38,21,57S268.94,165.33,268.94,165.33Z"/></g><path class="cls-6" d="M220.94,103s10-26,14-35,6-50,0-65h-12s8,25.33,6,41.67-20,60.33-20,60.33Z"/><path class="cls-7" d="M272.23,60.37a166.32,166.32,0,0,1,2.6-56.57A3,3,0,0,0,271.94,0h-49A3,3,0,0,0,220,3.8c3.8,13.74,7.32,29,6.15,43.31-.78,9.46-5.65,19.08-8.91,27.89q-3.57,9.63-7.24,19.2c-1.38,3.61,4.42,5.17,5.79,1.6q3.79-9.9,7.47-19.84c3.41-9.24,8.11-18.92,8.89-28.85,1.16-14.81-2.43-30.68-6.36-44.91L222.94,6h49L269,2.2a171.14,171.14,0,0,0-2.81,58.17c.51,3.77,6.51,3.82,6,0Z"/><path class="cls-7" d="M281,82.71c-1.76-3-3.54-6.07-5.09-9.22-1.71-3.47-6.89-.43-5.18,3,1.55,3.15,3.33,6.17,5.09,9.21,1.93,3.34,7.12.33,5.18-3Z"/><path class="cls-7" d="M221.94,168.33h67a3,3,0,0,0,3-3V146.91c0-17.9,1.78-36.52-5.36-53.37-1.51-3.55-6.68-.49-5.18,3,6.9,16.27,4.54,35.31,4.54,52.58v16.18l3-3h-67c-3.86,0-3.87,6,0,6Z"/><path class="cls-8" d="M183.36,93.33,234.94,93s-4.07,38.82-38.54,37.91c-13.46-4.91-15.8-8.24-15.8-8.24S191.78,105.65,183.36,93.33Z"/><polygon class="cls-9" points="234.44 92.5 184.44 92.5 186.44 96.5 191.44 96.5 184.94 104.17 184.94 109.17 195.44 99.5 195.44 130.81 199.44 130.81 199.44 100.5 220.44 120.5 224.44 116.5 204.44 97.5 234.44 97.5 234.44 92.5"/><ellipse class="cls-10" cx="135.44" cy="105" rx="12.5" ry="24"/><path class="cls-11" d="M168.94,128h-16.5c-6.91,0-12.5-10.75-12.5-24s5.59-24,12.5-24H172s-16.06,8-13.06,28S168.94,128,168.94,128Z"/><path class="cls-11" d="M132.94,128h-16.5c-6.91,0-12.5-10.75-12.5-24s5.59-24,12.5-24H136s-16.06,8-13.06,28S132.94,128,132.94,128Z"/><ellipse class="cls-10" cx="173.44" cy="104" rx="12.5" ry="24"/><ellipse class="cls-3" cx="172.44" cy="105" rx="3.5" ry="7"/><ellipse class="cls-3" cx="136.44" cy="105" rx="3.5" ry="7"/><path class="cls-10" d="M11.9,106.22h97s8.37,25-9.82,25.38-78.24,2.65-83.71-2.48-3.51-22.9-3.51-22.9"/><path class="cls-3" d="M44.9,106.22l64,.78,8-6s-23-23-51-18-29,19-29,19l8,4.22"/><path class="cls-12" d="M11.9,106.22l65-1.22,7-4s-23-23-51-18-29,19-29,19l8,4.22"/><path class="cls-13" d="M243.81,132H7.56a4,4,0,0,0-4.12,4v16.1a4,4,0,0,0,4.12,4H29.44v21a4,4,0,0,0,4.12,4H49.31a4,4,0,0,0,4.13-4V156h144.5v21a4,4,0,0,0,4.12,4h15.75a4,4,0,0,0,4.13-4V156h21.87a4,4,0,0,0,4.13-4V136A4,4,0,0,0,243.81,132Z"/></g><g id="Calque_2-2" data-name="Calque 2"><path class="cls-7" d="M160.94,159h37l-3-3c0,6.68-.31,13.44,0,20.11.4,8.85,8.43,7.87,15,7.87s14.59,1,15-7.87c.3-6.67,0-13.43,0-20.11l-3,3h18.64c2.59,0,5.26.22,7.49-1.41,2.69-2,2.87-4.88,2.87-7.89,0-5.2,2.06-15.71-2.87-19.31-2.52-1.84-5.91-1.41-8.85-1.41H18.82c-3.5,0-7-.16-10.52,0-5.74.27-7.86,4-7.86,9.3S-1.65,154,3.31,157.61C5.53,159.24,8.2,159,10.8,159H29.44l-3-3c0,6.68-.31,13.44,0,20.11.4,8.85,8.43,7.87,15,7.87s14.59,1,15-7.87c.3-6.67,0-13.43,0-20.11l-3,3h89.12c3.86,0,3.87-6,0-6H53.44a3,3,0,0,0-3,3v15.71c0,1.85.81,5.29-1.21,6.27-1.72.84-5.9,0-7.79,0s-5.88.79-7.68,0c-2.11-.92-1.32-3.91-1.32-5.84V156a3,3,0,0,0-3-3H12.37c-1.8,0-5,.75-5.93-1.26s0-7,0-9.19c0-1.88-.92-6.53,1.13-7.57.44-.22,1.42,0,1.9,0,3.49-.28,7.14,0,10.64,0H239a19.09,19.09,0,0,1,4.07,0c1.81.44,1.61,1.25,1.86,3,.5,3.52,0,7.44,0,11,0,3.24-.42,4-3.66,4H221.94a3,3,0,0,0-3,3v15.71c0,1.85.81,5.29-1.21,6.27-1.72.84-5.9,0-7.79,0s-5.88.79-7.68,0c-2.11-.92-1.32-3.91-1.32-5.84V156a3,3,0,0,0-3-3h-37c-3.86,0-3.87,6,0,6Z"/><path class="cls-7" d="M61.52,153H43.94c-3.86,0-3.87,6,0,6H61.52c3.86,0,3.87-6,0-6Z"/><path class="cls-7" d="M230.27,153H214.94c-3.86,0-3.87,6,0,6h15.33c3.86,0,3.87-6,0-6Z"/><path class="cls-7" d="M8.94,120a13.66,13.66,0,0,0,6,12.46c4.37,2.81,9.57,2.54,14.56,2.54H48.72c8.27,0,18.84,1.68,26-3.44,7.82-5.57,5.22-17.22,5.22-25.56a3,3,0,0,0-3-3h-50c-3.86,0-3.87,6,0,6h50l-3-3v8.24c0,4.83,1.21,10.37-3.75,13.08-5.9,3.22-15,1.68-21.47,1.68H34.33c-4.41,0-9.68.74-13.93-.56A7.73,7.73,0,0,1,14.94,120c.37-3.84-5.63-3.82-6,0Z"/><path class="cls-7" d="M14.45,104.41l-8-6,1.08,4.1c15.61-23.05,58.33-21.31,73.82,1l1.07-4.1-7,4c-3.35,1.92-.33,7.1,3,5.18l7-4a3,3,0,0,0,1.08-4.1c-18.23-26.27-65.8-28.16-84.18-1-1,1.45-.15,3.18,1.07,4.1l8,6c3.09,2.32,6.09-2.89,3-5.18Z"/><path class="cls-7" d="M95.27,135c5.84-.18,12.87-2.14,15.63-7.82,2.59-5.33,1-13.36,1-19.18l-1.49,2.59,8-6c1.18-.88,2.14-2.7,1.08-4.1-7.43-9.8-18.74-18.15-30.88-20.67-8.21-1.7-17.73-1.18-25.95.45-2.09.41-5.56,1.06-6.66,3.24-1.75,3.44,3.43,6.48,5.18,3-.41.8-.86.43-.2.4,1.09-.07,3.07-.87,4.43-1.09,7.72-1.24,16.64-1.73,24.22.4a46.58,46.58,0,0,1,17.86,10.24,63,63,0,0,1,5.07,5c.44.5,2.28,2.72,1.75,2l1.07-4.1c-3,2.29-9.1,5-9.48,9.14s.13,8.51,0,12.7c-.19,5.88-5.45,7.59-10.67,7.75-3.85.12-3.87,6.12,0,6Z"/><path class="cls-7" d="M140.35,122.49c-3.22,5.26-7.74,3.73-10.55-.95-2.92-4.87-3.88-10.94-3.86-16.54s1.26-11.37,4.35-16c1.19-1.79,2.94-4,5.11-4.66,3.25-.94,4.58,2.18,5.95,4.59,1.91,3.36,7.1.34,5.18-3-3.83-6.72-9.69-10.61-16.72-5.2S120,96.4,119.94,105c0,8.14,1.84,18.44,8.32,24.07,6.05,5.27,13.4,2.78,17.27-3.56,2-3.3-3.17-6.32-5.18-3Z"/><path class="cls-7" d="M181.94,105c-.1,5.17-1.48,21-9.5,21s-9.5-15.71-9.5-21c0-5.58,1.38-20,9-20.93,8.31-1,9.9,15.93,10,20.93.07,3.86,6.07,3.87,6,0-.17-9.07-3.18-26.95-15.5-27s-15.5,18-15.5,27,3.29,27,15.5,27,15.33-18,15.5-27C188,101.14,182,101.14,181.94,105Z"/><path class="cls-7" d="M168.94,126c-5.23,0-10.64.43-15.85,0-9.93-.82-10.66-18-10-25.22.49-5,1.88-11.83,6-15.26,2-1.71,3.91-1.52,6.38-1.52H172c3.86,0,3.87-6,0-6-6.41,0-12.92-.36-19.31,0-10.93.62-14.71,13.75-15.55,22.78-.9,9.65,1,27.18,12.3,30.73,5.84,1.83,13.45.49,19.5.49,3.86,0,3.86-6,0-6Z"/><path class="cls-7" d="M109.25,92.44a19.89,19.89,0,0,1,3.09-6.28c2.38-3,5.32-2.16,8.87-2.16h15.73c3.86,0,3.86-6,0-6H116.41c-7.19,0-11,6.53-13,12.85-1.15,3.69,4.64,5.27,5.79,1.59Z"/><path class="cls-7" d="M135.94,129H124.31a33.43,33.43,0,0,1-4.8,0c-4-.6-6-4.54-7.41-8s-7.22-2-5.79,1.59c2.63,6.61,6.63,12.27,14.26,12.41,5.12.09,10.25,0,15.37,0,3.86,0,3.86-6,0-6Z"/><path class="cls-7" d="M177.72,127.73c26,16.26,59.64-2.23,60.22-32.73.07-3.86-5.93-3.86-6,0-.49,26.09-29.08,41.35-51.19,27.55-3.28-2.06-6.3,3.13-3,5.18Z"/><path class="cls-7" d="M228.94,26.61h40c3.86,0,3.86-6,0-6h-40c-3.86,0-3.87,6,0,6Z"/><path class="cls-7" d="M254.94,5a7,7,0,0,1-14,0"/></g></g></svg>